<?xml version="1.0" standalone="no"?>
<!DOCTYPE svg PUBLIC "-//W3C//DTD SVG 1.1//EN" "http://www.w3.org/Graphics/SVG/1.1/DTD/svg11.dtd" >
<svg xmlns="http://www.w3.org/2000/svg">
<metadata></metadata>
<defs>
<font id="meloregular" horiz-adv-x="880" >
<font-face units-per-em="2048" ascent="1638" descent="-410" />
<missing-glyph horiz-adv-x="614" />
<glyph horiz-adv-x="0" />
<glyph horiz-adv-x="682" />
<glyph unicode=" "  horiz-adv-x="614" />
<glyph unicode="&#x09;" horiz-adv-x="614" />
<glyph unicode="&#xa0;" horiz-adv-x="614" />
<glyph unicode="!" horiz-adv-x="473" d="M205 -367q0 -14 8 -23t23 -9q33 0 32 32q0 33 -32 33q-13 0 -22 -10t-9 -23zM211 -227q0 -23 22 -23q8 0 14.5 6t6.5 17v1642q0 10 -6 16.5t-15 6.5q-23 0 -22 -23v-1642z" />
<glyph unicode="&#x22;" horiz-adv-x="477" d="M82 1434q0 -63 14 -101q6 -20 29 -20q12 0 21.5 7t9.5 17q0 8 -2 11q-14 37 -15 90q0 41 6 84l5 47q2 12 2 30q0 20 -2 29q-3 12 -11 20.5t-20 8.5t-20.5 -7.5t-8.5 -19.5v-2q2 -43 -4 -112zM322 1434q0 -55 16 -101q6 -20 29 -20q10 0 19 7t9 17q0 8 -2 11 q-12 35 -12 90l4 82q6 68 4 108q-2 12 -10 20.5t-21 8.5q-12 0 -20 -7.5t-8 -19.5v-2q2 -6 2 -33l-4 -79q-6 -43 -6 -82z" />
<glyph unicode="#" horiz-adv-x="1228" d="M92 164q0 -25 25 -25h215q-43 -119 -82 -239q-51 -137 -78 -244v-4q0 -12 6 -20.5t17 -8.5q18 0 20 19q14 68 61 202l35 99q6 14 15 43q14 39 27.5 78.5t27.5 74.5h319q-33 -98 -84 -239q-55 -150 -75 -244v-4q0 -12 7 -20.5t17 -8.5q18 0 21 19q18 86 61 202l35 99 q6 14 14 43q14 39 27.5 78.5t28.5 74.5h258q23 0 22 25q0 25 -22 24h-240l88 236l31 80h239q23 0 23 26q0 25 -23 25h-221l135 356l39 99l68 161q2 5 2 13q0 12 -8 21t-19 9q-10 0 -16 -12q-119 -287 -254 -647h-317l137 356q43 100 53 131l25 62q8 23 28 67q2 4 2 13 q0 12 -8 21t-18 9q-12 0 -19 -12l-28 -72q-168 -426 -226 -575h-247q-25 0 -25 -25q0 -27 25 -26h227l-51 -144l-62 -172h-233q-25 0 -25 -24zM401 188q39 115 117 316h316l-115 -316h-318z" />
<glyph unicode="$" horiz-adv-x="700" d="M82 956q0 -57 12 -116q27 -143 129 -271q16 -20 94 -94v-788q-37 2 -71 14q-94 33 -119 184q-2 14 -18 15q-25 0 -25 -23v-4q20 -111 71.5 -166t161.5 -63v-86q0 -23 23 -23q8 0 14 6t6 17v86q29 0 37 2q63 8 103.5 38.5t64.5 90.5q53 123 53 250q0 117 -60 224t-185 234 l-13 13v780l39 -4q115 -31 140 -182q2 -14 18 -15q8 0 15.5 6t7.5 15v6q-12 109 -71.5 161t-148.5 58v125q0 10 -6 16t-14 6q-23 0 -23 -22v-127q-29 -4 -59 -12q-59 -23 -96 -62q-35 -41 -57.5 -124t-22.5 -165zM127 958q0 63 13.5 128t31.5 100t55 59.5t90 30.5v-739 q-31 25 -63 65q-127 149 -127 356zM360 -315v747q47 -47 91 -102q125 -156 124 -310q0 -113 -45 -217q-14 -37 -36 -65q-39 -49 -134 -53z" />
<glyph unicode="%" horiz-adv-x="909" d="M84 -375v-4q0 -10 7 -17t18 -7q14 0 18 16q20 80 48 154.5t30 80.5q92 242 127 332l18 49q147 371 348 846l37 90q27 70 92 215q2 4 2 11q0 8 -7 15t-17 7q-8 0 -14 -10q-322 -715 -613 -1497l-39 -105q-33 -88 -55 -176zM254 1337q0 -29 19.5 -49t48.5 -20 q30 0 49.5 20.5t19.5 48.5q0 31 -19.5 51.5t-49.5 20.5q-31 0 -49.5 -21.5t-18.5 -50.5zM473 -332q0 -29 19.5 -49t48.5 -20q31 0 50 20.5t19 48.5q0 31 -19.5 51.5t-49.5 20.5q-31 0 -49.5 -21.5t-18.5 -50.5z" />
<glyph unicode="'" horiz-adv-x="227" d="M84 1620q4 -61 4 -139q0 -109 2 -140q0 -18 19 -18q12 0 23 9t11 24v104q0 90 -4 160q-1 27 -28 27t-27 -25v-2z" />
<glyph unicode="(" horiz-adv-x="407" d="M82 524q0 -172 14 -372q12 -164 29.5 -259.5t54.5 -181.5q18 -43 37 -67.5t41 -30.5h4q10 0 17.5 6t7.5 16q0 14 -17 21q2 0 0 2l-8 4q-14 14 -33 51q-35 70 -51 153t-31 220q-20 225 -20 426q0 162 16 371q14 152 36 249t63 179q25 51 51 75l14 11h2q16 6 17 22 q0 8 -6.5 15.5t-16.5 7.5l-6 -2q-41 -11 -78 -74q-43 -68 -66.5 -154t-41.5 -223q-29 -223 -29 -465z" />
<glyph unicode=")" horiz-adv-x="407" d="M82 -371q0 -25 22 -24l7 2q35 12 75 74q43 68 66.5 153.5t42.5 224.5q29 219 29 463q0 172 -15 373q-12 154 -29.5 255t-54.5 187q-18 43 -35.5 66.5t-39.5 30.5h-5q-25 0 -24 -23q0 -14 14 -20q2 0 8 -7q18 -18 35 -51q35 -70 51.5 -154.5t28.5 -217.5q20 -190 21 -422 q0 -199 -17 -375q-14 -152 -34.5 -250t-61.5 -178q-29 -53 -53 -74l-13 -10h-2v-2q-16 -6 -16 -21z" />
<glyph unicode="*" horiz-adv-x="417" d="M41 1413q0 -6 4 -12t12 -6h82l-61 -54q-6 -6 -6 -12q0 -8 5 -13t13 -5q6 0 12 6l68 55v-90q0 -8 6 -12t12 -4q18 0 19 16v82l53 -64q6 -6 12 -6t12.5 6.5t6.5 14.5l-4 12q-16 16 -58 68h88q8 0 13.5 6t5.5 12q0 18 -19 19h-77q16 12 61 53q6 6 6 12t-5 11t-13 5l-13 -4 q-8 -6 -69 -59v92q0 18 -19 19q-6 0 -12 -5.5t-6 -13.5v-78l-51 62q-4 4 -13 4q-6 0 -12 -5t-6 -14l4 -12q16 -16 58 -67h-93q-16 0 -16 -19z" />
<glyph unicode="+" horiz-adv-x="870" d="M82 526q0 -27 24 -26h306v-367q0 -23 24 -22q8 0 15.5 6t7.5 16v367h305q25 0 24 26q0 25 -24 25h-305v340q0 12 -7.5 17t-15.5 5q-25 0 -24 -22v-340h-306q-25 0 -24 -25z" />
<glyph unicode="," horiz-adv-x="305" d="M80 -569q0 -10 7 -18.5t17 -8.5t17 8q86 111 102 252v4q0 18 -20 19q-23 0 -27 -23q-16 -121 -90 -217q-6 -6 -6 -16z" />
<glyph unicode="-" horiz-adv-x="866" d="M82 520q0 -25 24 -24h654q25 0 24 24q0 25 -24 25h-654q-24 0 -24 -25z" />
<glyph unicode="." horiz-adv-x="249" d="M84 -367q0 -18 11 -30.5t30 -12.5q18 0 30.5 12.5t12.5 30.5t-12.5 31.5t-30.5 13.5q-19 0 -30 -13t-11 -32z" />
<glyph unicode="/" horiz-adv-x="909" d="M82 -342v-4q0 -10 7 -17.5t17 -7.5q14 0 19 17q20 80 48 154.5t30 80.5q92 242 127 332l18 49q147 371 348 846l37 90q27 72 92 215q2 4 2 10q0 8 -7 15.5t-17 7.5q-8 0 -15 -10q-321 -715 -612 -1497l-39 -105q-33 -88 -55 -176z" />
<glyph unicode="0" horiz-adv-x="800" d="M82 471q0 -256 11 -411.5t54 -274.5t138 -160q43 -20 112 -20q176 0 256 125q43 68 51.5 164t8.5 284l4 225q2 39 2 179l-2 356v70q2 118 -21.5 205t-83.5 153q-72 72 -196 72q-51 0 -92 -11q-59 -14 -111.5 -60t-77.5 -107q-25 -59 -33 -121t-10 -168l-2 -56 q-8 -262 -8 -444zM133 575v130l6 258q2 12 2 57q4 117 19 172q18 63 61 116.5t98 71.5q25 8 66 9l59 -3q57 0 97 -22q72 -47 100.5 -131t28.5 -209v-444q0 -137 -2 -177q-8 -244 -9 -413v-27q-2 -102 -22.5 -164.5t-77.5 -101.5q-61 -43 -170 -43q-98 0 -158 74 q-53 68 -69.5 167t-22.5 287l-2 45z" />
<glyph unicode="1" horiz-adv-x="487" d="M82 489q0 -10 8 -18t19 -8q18 0 20 18q55 381 162 768q27 -637 26 -1214l-4 -414q0 -23 25 -22q25 0 24 22q2 88 3 395q0 731 -33 1385q0 23 -25 22q-16 0 -22 -16q-135 -448 -203 -913v-5z" />
<glyph unicode="2" horiz-adv-x="727" d="M82 1196q0 -10 7 -16t17 -6q16 0 23 18q27 82 98.5 136t157.5 54t140.5 -53t54.5 -143q0 -53 -15.5 -106.5t-54.5 -139.5q-274 -676 -385 -1212q-8 -33 -8 -58q0 -31 14 -45q23 -23 78 -22h37q29 -2 162 2l131 4q66 0 84 -2h4q18 0 18 22q0 20 -22 25l-99 4l-153 -4 q-80 -6 -158 -6q-49 0 -49 33q0 10 4 24t6 19q6 35 39 172q70 293 201 657q49 137 116 309l21 47q45 109 61.5 163t16.5 116q0 115 -78 186q-70 57 -170 58q-98 0 -183 -64.5t-114 -163.5q-2 -2 -2 -8z" />
<glyph unicode="3" horiz-adv-x="569" d="M82 1380q0 -25 22 -24l9 2q41 10 67 10q74 0 137 -47q55 -45 75 -102.5t20 -145.5l-2 -78q-2 -82 -15 -180q-18 -141 -66 -225t-141 -96h-18l-4 -2h-6q-16 -4 -17 -21q0 -10 6.5 -18.5t16.5 -8.5q12 0 16 2h19q51 0 94 -13t78 -52q37 -43 51 -104.5t14 -176.5v-116 q0 -98 -20.5 -170t-85 -119t-189.5 -49q-20 0 -20 -25q0 -8 5 -15t15 -7q184 4 261 97t81 277l2 103q0 115 -12 188q-10 74 -49 128t-102 79q-12 4 -33 10q70 45 104 140q63 166 64 440q0 72 -9.5 122t-31.5 93q-35 66 -99.5 102.5t-138.5 36.5q-39 0 -80 -12 q-18 -6 -18 -23z" />
<glyph unicode="4" horiz-adv-x="745" d="M82 502q0 -25 22 -25h410l2 -848q0 -23 25 -22q8 0 15 5t7 17q-2 188 -2 848h80q23 0 23 25q0 8 -5.5 15t-17.5 7h-80q-2 121 -2 545q0 12 -7 17.5t-15 5.5q-25 0 -25 -23q2 -121 2 -545h-381q35 150 123 463l12 47q29 109 51.5 199t32.5 168v4q0 10 -8 17.5t-18 7.5 q-14 0 -19 -17q-10 -74 -26.5 -145.5t-51.5 -202.5l-18 -66l-41 -155q-49 -168 -88 -332v-10z" />
<glyph unicode="5" horiz-adv-x="657" d="M82 -365q0 -16 16 -20q61 -12 129 -12q139 0 207 75q35 39 55.5 90.5t49.5 149.5q37 135 36 281q0 78 -12 156.5t-31 131.5q-43 123 -190 123q-55 0 -108.5 -18.5t-96.5 -50.5q-2 133 -2 604v153v27v10q0 35 31 35l31 -2h65q125 0 225 12q23 4 23 25q0 23 -21 22h-2 q-106 -12 -239 -12h-70q-35 0 -55 -6q-35 -10 -35 -63v-121q0 -575 2 -740q0 -8 8 -16t17 -8q6 0 14 8q35 43 94.5 69.5t118.5 26.5q49 0 87 -18.5t52 -52.5q18 -45 32.5 -124t14.5 -163l-4 -86q-33 -471 -305 -471q-41 0 -106 10h-4q-10 0 -18.5 -7t-8.5 -18z" />
<glyph unicode="6" horiz-adv-x="786" d="M82 166q0 -127 10 -216t50 -171t122 -131q66 -41 139 -41q78 0 142 51q109 90 147 301q12 66 13 127q0 125 -48 250q-33 90 -92 157.5t-135 96.5q-49 18 -98 18q-51 0 -99.5 -17.5t-87.5 -49.5q16 127 43 239q47 193 131 349.5t205 252.5q8 6 8 15q0 10 -7 17t-17 7 t-16 -6q-135 -111 -220 -274q-88 -170 -130 -350.5t-56 -444.5zM127 225q0 123 12 242l8 8q33 41 81 63.5t104 22.5q49 0 103 -23.5t100 -78.5q53 -68 86.5 -162t33.5 -209q0 -66 -8 -108q-35 -207 -133 -287q-45 -39 -111 -39q-47 0 -90 20q-51 23 -93 70t-60 119 q-33 129 -33 362z" />
<glyph unicode="7" horiz-adv-x="743" d="M82 1393q0 -8 6 -15.5t16 -9.5q31 -2 140 -2l366 2q-35 -174 -133 -534l-35 -129l-49 -179q-158 -573 -182 -663l-27 -101l-18 -65q-12 -41 -19 -78v-4q0 -10 7.5 -18.5t17.5 -8.5q6 0 12 5.5t9 13.5q29 127 106 401q31 102 51 180q137 496 236 873l18 74q35 141 58 249 v5q0 10 -6.5 18t-16.5 8q-31 2 -133 2l-268 -2q-102 0 -134 2q-23 0 -22 -24z" />
<glyph unicode="8" horiz-adv-x="729" d="M82 35q0 -186 71.5 -300t215.5 -114q25 0 32 2q98 8 156.5 87t73.5 198q4 37 4 82q0 43 -6 135l-4 47q-8 86 -19 135q-25 152 -153 205q-10 6 -50 20q41 27 68 50q127 100 156 227q20 94 20 270v125q-2 100 -74.5 159.5t-187.5 59.5q-72 0 -127 -27.5t-80 -82.5 q-29 -68 -37 -141.5t-8 -206.5q0 -162 22.5 -251t96.5 -149q20 -16 59 -41q-78 -55 -121 -102t-65 -113q-43 -119 -43 -274zM127 8q0 113 27.5 233.5t101.5 186.5q31 27 100 74l62 -25q51 -22 80 -51q49 -49 69 -152q6 -43 10.5 -85t4.5 -64l4 -62q2 -16 2 -71 q0 -98 -21 -160q-25 -76 -73 -120t-119 -44q-49 0 -93 19.5t-75 56.5q-80 88 -80 264zM176 918q0 72 7 171t22 154q16 59 41 86q41 45 143 45q90 0 149.5 -44t61.5 -126v-127q0 -160 -18 -256q-12 -63 -52.5 -114.5t-107.5 -104.5l-66 -47q-53 29 -80 49q-57 47 -78.5 124 t-21.5 190z" />
<glyph unicode="9" horiz-adv-x="786" d="M82 934q0 -123 39 -227.5t100 -176.5q98 -117 232 -116q109 0 188 67q-14 -123 -43 -239q-47 -193 -131 -349.5t-205 -252.5q-8 -6 -8 -15q0 -10 8 -17t17 -7q10 0 16 6q133 109 221 276q86 170 128 349.5t56 441.5l5 182q0 127 -9.5 215t-49.5 171t-124 132 q-65 39 -139 39q-82 0 -141 -49q-109 -88 -148 -301q-12 -63 -12 -129zM131 934q0 66 8 108q33 201 133 285q45 39 111 39q49 0 92 -20q51 -23 92 -70t60 -119q33 -129 32 -362q0 -121 -12 -242q-4 0 -8 -6q-33 -41 -83 -64.5t-103 -23.5q-49 0 -102.5 24.5t-98.5 79.5 q-53 66 -87 160t-34 211z" />
<glyph unicode=":" horiz-adv-x="247" d="M82 295q0 -18 11 -31.5t30 -13.5q18 0 30.5 13t12.5 32q0 18 -12.5 30.5t-30.5 12.5q-19 0 -30 -12.5t-11 -30.5zM82 821q0 -18 11 -30.5t30 -12.5q18 0 30.5 12.5t12.5 30.5t-11.5 30.5t-31.5 12.5q-19 0 -30 -12t-11 -31z" />
<glyph unicode=";" horiz-adv-x="323" d="M82 -569q0 -10 7 -18.5t17 -8.5t17 8q86 111 102 252v4q0 18 -20 19q-23 0 -27 -23q-16 -121 -90 -217q-6 -6 -6 -16zM158 -121q0 -18 11 -30.5t30 -12.5q18 0 30.5 12.5t12.5 30.5t-12.5 31.5t-30.5 13.5q-19 0 -30 -13t-11 -32z" />
<glyph unicode="=" horiz-adv-x="968" d="M82 295q0 -12 7 -20.5t20 -8.5h749q12 0 20.5 8.5t8.5 20.5t-8.5 20.5t-20.5 8.5h-749q-13 0 -20 -8.5t-7 -20.5zM82 803q0 -12 7 -21.5t20 -9.5h749q12 0 20.5 9.5t8.5 21.5t-8.5 20t-20.5 8h-749q-13 0 -20 -8t-7 -20z" />
<glyph unicode="?" horiz-adv-x="761" d="M82 1122q2 -8 8 -14t14 -6t14.5 6t6.5 14q-4 59 35 113q35 51 88 75.5t112 24.5q106 0 179 -73q49 -49 75.5 -123t26.5 -158q0 -117 -45 -205q-25 -47 -63.5 -80.5t-106.5 -74.5q-88 -55 -124 -90t-58 -103q-23 -61 -31 -143t-8 -123q-6 -106 -6 -213l4 -185q0 -10 6 -16 t14 -6t14.5 6t6.5 14v2l-4 156q0 113 6 219q8 182 34.5 266t106.5 138l64 39q74 47 98 67q131 113 131 338q0 106 -37 193.5t-111 142.5q-69 51 -165 51q-74 0 -140 -31q-70 -31 -108.5 -89t-36.5 -132zM197 -371q0 -12 8 -21t20 -9q14 0 22.5 9t8.5 21t-8 22.5t-23 10.5 q-12 0 -20 -10t-8 -23z" />
<glyph unicode="@" horiz-adv-x="1243" d="M82 365q0 -113 12 -199t41 -158q49 -117 150.5 -188.5t234.5 -87.5q37 -4 84 -4q82 0 157 18t128 55q27 14 35 35q4 8 4 12q0 10 -8.5 17.5t-18.5 7.5q-12 0 -18 -12q-6 -14 -25.5 -25.5t-58.5 -25.5q-86 -33 -205 -33q-113 0 -207 39t-151 116q-59 78 -82 179.5 t-23 253.5q0 213 35 383q29 141 76 246.5t123 174.5q53 49 124.5 75t151.5 26q125 0 225.5 -58.5t155.5 -162.5q92 -176 92 -451q0 -92 -14 -205q-14 -98 -35 -163.5t-55 -118.5q-20 -29 -49 -47.5t-54 -18.5q-35 0 -58.5 40t-33.5 101q-8 53 -13 140.5t-5 144.5l2 141 l4 103q0 25 -23 24q-23 0 -26 -24l-6 -84q-8 -129 -20.5 -196.5t-43.5 -127.5q-25 -47 -71 -76.5t-93 -29.5q-45 0 -74 26q-29 25 -42 85.5t-13 129.5q0 137 55 226q37 59 94.5 91t127.5 32q59 0 108 -21q4 -2 10 -2q8 0 13.5 7t5.5 18q0 18 -17 24q-57 23 -122 23 q-109 0 -191 -66q-70 -59 -99.5 -146t-29.5 -210q0 -88 19 -154q16 -59 61 -88t94 -29q59 0 114.5 35t86.5 90q6 12 29 64q18 -340 155 -340q57 0 101.5 42t76.5 109q78 174 78 428l-4 111q-14 295 -141 459q-62 82 -163 128t-214 46q-80 0 -154 -25q-113 -37 -193.5 -132 t-127.5 -232q-82 -231 -82 -565z" />
<glyph unicode="A" d="M82 -391q0 -8 6 -12.5t16 -4.5q6 0 14.5 5.5t10.5 11.5l12 45q141 516 203 813h254q72 -449 150 -842q4 -10 14 -10q12 0 26 9q12 8 11 13l-177 961q-66 414 -96 799q-3 22 -26 22t-23 -22q0 -47 -20 -127l-13 -56l-61 -276q-31 -131 -64 -332q-45 -256 -86 -422 l-149 -565q-2 -4 -2 -10zM350 516q11 33 21 107q10 61 63 307l12 61l41 195q0 4 5 20q2 6 2 19q25 -219 79 -602l15 -107h-238z" />
<glyph unicode="B" horiz-adv-x="722" d="M82 1290l4 -104l2 -47l4 -203l8 -391l21 -912v-4q0 -16 18 -18q31 -6 66 -6q76 0 145 24q145 47 230 209q37 72 49 148.5t12 136.5q0 51 -8 82q-20 82 -90 160q-60 71 -139.5 117t-165.5 57q66 47 98 98q70 96 106.5 217t36.5 231q0 131 -59 228q-72 117 -211 117 q-57 0 -90 -23t-35 -70zM127 1321q0 23 6 35q15 26 70 26q18 0 51 -4q49 -8 92 -45q86 -86 86 -235q0 -86 -28.5 -201t-90.5 -209q-29 -45 -66.5 -80t-94.5 -73l-5 -3q0 51 -2 82l-8 396l-4 168q0 63 -2 82q0 18 -2 28t-2 33zM150 494q8 -4 14 -2l31 2q86 0 163 -41 q80 -43 143.5 -115t84.5 -145q8 -31 8 -76q0 -47 -6 -90q-10 -88 -47 -163t-99 -130q-41 -39 -104.5 -60.5t-130.5 -21.5q-31 0 -39 2z" />
<glyph unicode="C" horiz-adv-x="688" d="M82 727q0 -55 4 -178l2 -96l4 -285l-2 -127q0 -131 25 -225q25 -100 92 -153.5t170 -53.5q70 0 130 22.5t91 63.5q6 6 6 16t-7 18.5t-17 8.5t-17 -8q-27 -35 -79 -55.5t-109 -20.5q-80 0 -129 37q-61 47 -85 129t-24 209l2 121q0 109 -2 139q0 207 -6 416l-2 114 q0 115 14.5 203t49.5 164q27 57 57.5 91t77.5 52q43 17 88 17q84 0 147 -58q6 -6 15 -6q10 0 19 8t9 17q0 10 -8 16q-37 35 -86 53t-104 19q-51 0 -100.5 -18.5t-86.5 -55.5q-80 -78 -108 -207q-31 -145 -31 -387z" />
<glyph unicode="D" horiz-adv-x="720" d="M82 1339l10 -1701q0 -8 5 -14.5t14 -8.5q31 -8 47 -8q53 0 133 39q18 6 41 16q90 41 147 131q27 41 42.5 82t45.5 145q33 119 52.5 267.5t19.5 292.5q0 268 -49 528q-23 121 -82 184q-49 53 -121 82t-149 29q-68 0 -129 -23q-12 -4 -17 -20q-10 -6 -10 -21zM129 1337 q53 18 111 19q61 0 117.5 -20.5t99.5 -59.5q35 -31 54 -73t32 -101q49 -266 49 -518q0 -354 -100 -641q-25 -74 -52 -119q-45 -84 -125 -117l-47 -20q-33 -14 -60.5 -23.5t-47.5 -9.5q-14 0 -21 2q0 174 -2 276z" />
<glyph unicode="E" horiz-adv-x="702" d="M82 1331l6 -74q2 -27 2 -124v-62q0 -143 -2 -184l-2 -185v-61l2 -242q2 -53 2 -239q0 -213 -2 -275l-2 -276q0 -10 8 -16.5t19 -6.5h4q152 23 317 23q82 0 105 -2h4q18 0 18 22q0 20 -22 25q-23 2 -101 2q-166 0 -303 -21l2 543q0 223 -2 287h4q31 2 142 2q104 0 186 6 q25 0 25 25q0 8 -6.5 15t-16.5 7h-2q-31 -2 -139 -2q-104 0 -189 -6h-4q-2 51 -2 231l4 359q0 115 -4 209v14q0 12 4 25q10 20 60 20h28q14 2 64 2q47 0 61 -2l246 -8q25 0 25 22q0 25 -25 25q-45 0 -137 6q-117 6 -172 6l-107 -4q-53 -4 -75.5 -21.5t-22.5 -64.5z" />
<glyph unicode="F" horiz-adv-x="700" d="M82 1327l6 -74l4 -125l-2 -215l-4 -217l2 -268q2 -59 2 -268l-4 -551q0 -23 25 -23t24 23l4 567l-4 285h6q74 6 164 6l162 4q23 0 22 25q0 8 -5 15t-15 7h-2l-162 -4q-90 0 -164 -4q-4 0 -6 -2v233l4 334q0 117 -6 230v14q0 12 4 24q12 23 66 23h22q18 2 49 2 q14 -2 35 -2h41l123 -4l123 -6q23 0 22 24q0 25 -22 25l-127 4q-86 6 -172 6l-117 -4q-51 -2 -74.5 -19.5t-23.5 -64.5z" />
<glyph unicode="G" horiz-adv-x="712" d="M82 459q2 -178 13 -377t24 -279q18 -98 91 -153.5t177 -55.5q76 0 129 37q63 47 85 128t22 225q0 168 8 415q0 6 -2 9v4q0 25 -23 24q-31 -2 -160 -10q-23 -4 -22 -27q0 -8 5 -15t15 -7h2l136 10l-7 -266q0 -61 3 -80l2 -90q0 -141 -43 -225q-23 -41 -64 -63.5t-92 -22.5 q-63 0 -117.5 30.5t-79.5 83.5q-16 35 -22 76t-8 102l-4 52q-20 283 -21 612q0 279 18 487q6 82 14.5 122t26.5 79q54 96 160 96l62 -2q66 -2 111.5 -45t64.5 -114q2 -8 8 -13.5t12 -5.5q10 0 17.5 7t7.5 18v6q-12 59 -45 106q-35 49 -82 71t-127 22q-16 0 -70 -5 q-49 -8 -90 -36.5t-65 -73.5q-33 -59 -44.5 -132t-17.5 -204l-2 -61q-6 -172 -6 -345v-114z" />
<glyph unicode="H" horiz-adv-x="743" d="M82 -383q0 -23 24 -23q25 0 25 23q10 395 10 850h2q31 -2 136 -2q178 0 313 14l4 -211l2 -104q2 -115 6 -280t8 -242q0 -23 25 -23t25 23q-14 369 -21 831q-12 621 -25 924q-2 24 -24 24h-2q-23 0 -23 -22v-2q13 -285 25 -869q-135 -14 -313 -14q-104 0 -136 2h-2 q0 268 -6 535q-2 76 -2 344q0 25 -24 24q-25 0 -25 -24q0 -248 8 -609q2 -57 2 -258q0 -541 -12 -911z" />
<glyph unicode="I" horiz-adv-x="311" d="M123 1409q0 -14 9 -24.5t24 -10.5q16 0 24 10.5t8 24.5q0 33 -32 33q-15 0 -24 -10.5t-9 -22.5zM133 -373q0 -10 6 -16t15 -6q23 0 22 22q10 358 10 772l-4 545l-4 316q1 22 -22 22q-8 0 -15.5 -6t-7.5 -16q0 -229 8 -560q2 -39 2 -174q0 -477 -10 -899z" />
<glyph unicode="J" horiz-adv-x="729" d="M82 -104v-2q12 -213 147 -271q43 -20 101 -20q74 0 140.5 40t102.5 107q43 82 58.5 184.5t15.5 249.5q0 184 -4 365q-2 16 -2 47l-4 133l-6 272q-2 20 -2 54l-8 323q-5 23 -25 23q-23 0 -23 -21v-2l23 -970l4 -213q0 -127 -12 -213q-20 -141 -67.5 -224.5t-143.5 -105.5 q-20 -4 -43 -4q-45 0 -89 20.5t-69 55.5q-37 55 -47 170q-4 23 -25 22q-10 0 -16 -6t-6 -14z" />
<glyph unicode="K" horiz-adv-x="780" d="M82 -379q0 -23 24 -22q25 0 25 22q12 485 14 836l80 4q184 0 285 -94q41 -39 57.5 -87.5t28.5 -134.5q29 -207 53 -542q4 -23 27 -23q8 0 15 5t7 16v2q-23 311 -59 592q-25 154 -125 229q-86 66 -211 80q86 31 154.5 88t111.5 135q55 96 77 210t30 308q2 29 8 121v4 q0 20 -22 21q-23 0 -27 -25l-6 -123q-8 -174 -24.5 -274.5t-59.5 -186.5q-57 -117 -165 -187.5t-235 -72.5l2 64q0 123 -8 301l-4 151l-4 340q0 12 -7 17.5t-15 5.5q-25 0 -25 -23v-80q0 -199 10 -522q2 -41 2 -186q0 -195 -4 -497t-10 -472z" />
<glyph unicode="L" horiz-adv-x="735" d="M86 676q0 -162 8 -402q8 -272 8 -462v-97q0 -43 4 -75q4 -29 32 -49.5t73 -20.5l39 2l190 6q106 0 191 6q22 4 22 25v2q0 8 -5 15t-15 7h-2q-95 -6 -191 -6l-127 -4l-45 -4q-41 -4 -51 -4q-31 0 -45 10q-22 22 -22 77v5q0 37 2 53q2 14 2 39q-4 264 -15 607 q-4 193 -4 434q-2 49 -2 219q0 248 -2 319q0 23 -25 23q-24 0 -24 -21z" />
<glyph unicode="M" horiz-adv-x="1140" d="M82 1374l6 -244q23 -694 23 -1093q0 -217 -7 -432q0 -23 25 -23t25 23q6 199 6 403q0 272 -10 658l-13 415l-4 125l367 -1138l57 -183q6 -16 25 -16q14 0 18 10q29 61 57 158l13 45q51 162 98 348l80 291q94 352 127 457l24 82l5 -455l6 -950v-263q0 -22 22 -22h2 q25 0 25 22v123l-4 523l-6 929l-1 209q0 10 -8 17.5t-18 7.5q-18 0 -32.5 -23.5t-22.5 -60.5l-11 -41q-33 -98 -92 -318l-69 -253q-86 -322 -152 -543l-14 -56l-19 -65q-14 -57 -26 -82l-398 1239q-18 68 -59 182q-2 18 -23 19q-8 0 -15 -6.5t-7 -16.5v-2z" />
<glyph unicode="N" horiz-adv-x="849" d="M82 1378l4 -135q31 -758 31 -1218q0 -209 -6 -418q0 -23 24 -23q25 0 25 23q6 205 6 411q0 430 -27 1072l-4 133l162 -453l342 -960l80 -222q6 -16 24 -16q8 0 15.5 5t7.5 17q2 29 2 130q0 162 -10 417l-2 64q-8 188 -8 354q0 135 -7 270l-4 203l-4 252v90q0 25 -24 25 q-25 0 -25 -25q0 -211 4 -407q2 -18 2 -49l4 -156l4 -273l7 -278l2 -59q12 -283 12 -422l-168 473l-344 960l-78 221q-6 16 -25 17q-23 0 -22 -21v-2z" />
<glyph unicode="O" horiz-adv-x="800" d="M82 461q0 -332 27 -563q8 -102 53 -189q37 -76 102.5 -108.5t132.5 -32.5q74 0 143.5 28.5t114.5 98.5q37 57 47.5 143t10.5 219v86l4 226q2 35 2 157l-2 316l2 153q0 111 -23.5 194t-83.5 142q-63 72 -192 72q-53 0 -98 -10q-55 -12 -108.5 -58.5t-78.5 -107.5 q-25 -59 -33 -121t-10 -168l-2 -55q-8 -248 -8 -422zM133 670l6 215q2 16 2 43v45q0 113 19 184q18 63 61 116.5t98 72.5q31 10 68 10l57 -2q63 -4 97 -25q72 -45 100.5 -129t28.5 -209v-110l2 -342q0 -133 -2 -170q-8 -244 -8 -414v-27q-2 -102 -23 -164.5t-78 -101.5 q-66 -43 -170 -43q-96 0 -155.5 70.5t-77.5 185.5q-14 102 -19.5 286.5t-5.5 508.5z" />
<glyph unicode="P" horiz-adv-x="700" d="M82 -389q0 -23 22 -23q25 0 25 23q12 377 16 823q113 4 213 55q104 55 172 146.5t82 200.5q6 53 6 104q0 162 -65.5 276.5t-196.5 155.5q-98 31 -161 31q-68 0 -103 -35l-4 -6q-6 -6 -6 -14q0 -199 4 -392q2 -18 2 -53l4 -149l4 -236q0 -176 -4 -457.5t-10 -449.5z M131 1339q16 12 51 13q23 0 60 -4q88 -8 147 -37q80 -35 129 -121t53 -189l2 -51q0 -193 -102 -311q-61 -72 -147 -113t-179 -43v82q0 129 -6 254q-8 231 -8 520z" />
<glyph unicode="Q" horiz-adv-x="839" d="M82 428q0 -254 11 -409.5t54 -274.5t138 -160q43 -20 110 -20q131 0 213 74q35 -33 78 -33q35 0 64 22q6 6 6 15q0 8 -7.5 16t-17.5 8t-16 -6q-17 -10 -27 -10q-18 0 -47 22q45 61 57.5 153.5t12.5 235.5v74l4 225q2 35 2 158l-2 316l2 131q0 121 -23.5 206.5 t-83.5 149.5q-70 72 -196 72q-51 0 -92 -11q-55 -12 -108.5 -58t-78.5 -107q-25 -59 -33 -121t-10 -168l-2 -56q-8 -262 -8 -444zM133 532v130l6 258q2 12 2 57q4 119 19 170q18 63 61 116.5t98 71.5q25 8 66 8l57 -2q57 0 97 -22q72 -47 100.5 -131t28.5 -209v-109l2 -342 q0 -131 -2 -168q-8 -143 -11 -350v-80q0 -82 -10 -134t-39 -91q-29 37 -33 41q-53 59 -102 59q-43 0 -78 -33.5t-45 -82.5v-4q0 -10 7.5 -18.5t17.5 -8.5q6 0 12 5t8 13q8 33 31 56.5t47 23.5q8 0 33 -10q27 -16 45 -41l24 -35q-2 -4 -16 -14q-63 -43 -170 -43 q-99 0 -158 74q-53 68 -69.5 168t-22.5 284l-2 45z" />
<glyph unicode="R" horiz-adv-x="696" d="M82 -389q0 -23 24 -23q8 0 15.5 6.5t7.5 16.5q12 375 16 813l66 6q72 0 121 -18q68 -23 119 -115t65 -219q37 -295 45 -486q2 -10 9.5 -16t15.5 -6q23 0 22 20v2q-18 330 -51 541q-8 66 -39 141q-72 156 -194 191q113 49 189.5 144.5t92.5 211.5q8 64 8 107 q0 154 -63 268q-55 102 -158.5 143t-197.5 41q-70 0 -101 -32q-4 -4 -4 -7q-6 -6 -6 -14v-80q0 -195 10 -508q2 -41 2 -182q0 -190 -4 -485t-10 -461zM131 1319q16 12 53 12q23 0 56 -4q86 -8 145 -37q78 -31 127 -117t53 -188l2 -51q0 -190 -100 -307q-102 -121 -260 -150 q-33 0 -62 -4v80q0 127 -6 252q-8 227 -8 514z" />
<glyph unicode="S" horiz-adv-x="757" d="M82 -174v-4q20 -113 72 -172q33 -39 89 -58.5t124 -19.5l63 4q68 8 111 42t75 99q59 137 60 265q0 127 -68.5 246.5t-204.5 254.5l-51 47q-45 39 -82 82q-67 80 -104 180.5t-37 208.5q0 74 14.5 138.5t36.5 105.5q20 43 69.5 72t123.5 29q90 0 145 -55.5t68 -147.5 q4 -16 18 -17q12 0 20.5 7.5t8.5 19.5v4q-10 57 -33 103q-29 55 -86 95t-143 40q-41 0 -95 -17q-115 -39 -154.5 -141t-39.5 -238q0 -63 12 -129q31 -154 142 -292q10 -16 79 -78l54 -49q45 -45 120 -134q137 -168 138 -337q0 -117 -52 -234q-18 -43 -40 -72 q-43 -57 -160 -57q-57 0 -113 21q-106 37 -133 196q-4 16 -20 16q-12 0 -19.5 -6t-7.5 -18z" />
<glyph unicode="T" horiz-adv-x="866" d="M82 1376q0 -25 24 -24q131 -4 295 -4q-4 -20 -4 -48l2 -57v-321l7 -904q0 -332 -3 -426q0 -24 25 -24h2q25 0 25 24v265l-2 657l-4 662l2 124q0 29 2 35v13l127 2l180 -4q25 0 24 24q0 25 -24 25l-187 4l-249 -2l-218 4h-4q-20 0 -20 -25z" />
<glyph unicode="U" horiz-adv-x="798" d="M82 801q0 -373 14 -752q0 -35 2 -65q4 -111 29 -197q31 -96 100.5 -151.5t163.5 -55.5q129 0 211 68q59 51 79.5 126.5t20.5 202.5q0 170 9 402l2 72l4 284q0 219 -2 283l-2 282v89q0 12 -7.5 17t-15.5 5q-25 0 -24 -22l-2 -353l2 -352v-76q0 -166 -7 -336l-6 -247v-91 q0 -106 -22 -163q-25 -61 -77 -97t-122 -45l-45 -2q-31 0 -57 6q-98 23 -150 148q-18 49 -24 100t-13 156q-6 115 -10 356.5t-4 415.5q0 324 14 575v5q0 18 -22 18q-20 0 -25 -23q-14 -213 -14 -583z" />
<glyph unicode="V" horiz-adv-x="817" d="M82 1389l51 -416q29 -240 62 -484q16 -127 40.5 -250.5t77.5 -367.5q18 -74 39 -176l15 -68q4 -16 22 -16t23 16q190 922 323 1778v4q0 10 -7 18.5t-17 8.5q-16 0 -21 -19q-106 -700 -301 -1665l-39 180q-68 307 -91 449.5t-62 452.5q-10 92 -15 120q-25 223 -55 449 q-4 16 -18 16q-10 0 -18.5 -7t-8.5 -19v-4z" />
<glyph unicode="W" horiz-adv-x="1153" d="M82 1419q0 -57 8 -145l4 -72q25 -342 33 -426q33 -453 74 -930q2 -47 16 -208q0 -10 7 -17.5t18 -7.5q16 0 32 29q12 25 21.5 59.5t11.5 52.5q39 147 82 352q59 268 133 621l41 195l19 96q115 -422 284 -1057l39 -147l49 -183q2 -8 8.5 -12t14.5 -4q25 0 24 23v32 q0 125 13 348l6 125l12 273q2 90 12 237l3 52q23 565 24 684v4q0 18 -22 18q-8 0 -15.5 -6t-9.5 -16q-6 -298 -20 -570l-19 -411l-24 -562q-2 -10 -3 -43l-309 1143l-12 47q-31 106 -35 135q-6 16 -24 17q-8 0 -14.5 -4t-8.5 -13q-168 -848 -272 -1275l-27 -105l-37 461 q-41 469 -74 948l-6 72q0 12 -5 76.5t-5 113.5q0 12 -7 17.5t-16 5.5q-25 0 -24 -23z" />
<glyph unicode="X" horiz-adv-x="856" d="M82 -373q0 -10 7 -16t17 -6q16 0 23 16q129 395 279 791q121 -354 177 -505t122 -290q6 -12 18 -12q10 0 17.5 7t7.5 17q0 8 -2 11q-76 170 -142.5 352t-163.5 475l-6 18l84 224q135 352 252 667q2 2 2 8q0 8 -7 14.5t-17 6.5q-16 0 -23 -16q-82 -230 -238 -633 q-12 -33 -77 -201q-90 274 -215 647l-68 197q-6 16 -23 16q-10 0 -17 -6t-7 -14q0 -6 2 -9q66 -180 178 -534l23 -68l22 -67l78 -234q-182 -477 -301 -848q-2 -2 -2 -8z" />
<glyph unicode="Y" horiz-adv-x="811" d="M82 1389q33 -139 51 -230q37 -176 70 -296t100 -290l55 -145l4 -285q0 -258 -12 -518q0 -22 21 -22h2q25 0 24 22q12 270 13 543q0 188 -2 244q0 4 2 4q193 522 319 981v4q0 10 -6 17t-16 7q-16 0 -23 -16q-115 -414 -299 -920q-29 80 -39 101q-70 182 -101.5 296.5 t-60.5 264.5q-29 141 -57 250q-4 16 -21 16q-25 0 -24 -22v-6z" />
<glyph unicode="Z" horiz-adv-x="845" d="M84 -371q0 -10 6 -16t16 -6l191 -4l188 -2q131 0 244 10q23 4 23 24q0 23 -21 23h-2q-100 -8 -250 -8l-336 4q25 51 93 235l24 68q121 319 211 580q90 244 197 557q14 41 65 192q2 10 17 41q10 25 14 49q4 43 -86 43q-33 0 -45 -2t-29 -2h-84q-201 0 -348 -18 q-23 -4 -22 -27q0 -8 5 -14t13 -6h4q139 18 371 18q115 0 145 -2q14 0 21 -2q0 -6 -2 -6l-19 -58l-61 -184q-215 -618 -391 -1091l-33 -93q-63 -176 -117 -290q-2 -4 -2 -13z" />
<glyph unicode="^" d="M322 1505q0 -10 5 -16t13 -6t10 2q5 2 101 47q12 -6 88 -47q4 -2 10 -2q8 0 14 6t6 14q0 10 -10 17l-80 43q-4 2 -13 6t-15 4l-11 -2q-6 -2 -37 -15l-73 -36q-8 -6 -8 -15z" />
<glyph unicode="`" d="M352 1548q0 8 7.5 15.5t15.5 7.5l8 -2q63 -29 139 -68q10 -6 10 -14t-5 -14.5t-13 -6.5t-10 2q-72 37 -142 68q-10 4 -10 12z" />
<glyph unicode="a" d="M82 -391q0 -8 6 -12.5t16 -4.5q6 0 14.5 5.5t10.5 11.5l12 45q141 516 203 813h254q72 -449 150 -842q4 -10 14 -10q12 0 26 9q12 8 11 13l-177 961q-66 414 -96 799q-3 22 -26 22t-23 -22q0 -47 -20 -127l-13 -56l-61 -276q-31 -131 -64 -332q-45 -256 -86 -422 l-149 -565q-2 -4 -2 -10zM350 516q11 33 21 107q10 61 63 307l12 61l41 195q0 4 5 20q2 6 2 19q25 -219 79 -602l15 -107h-238z" />
<glyph unicode="b" horiz-adv-x="722" d="M82 1290l4 -104l2 -47l4 -203l8 -391l21 -912v-4q0 -16 18 -18q31 -6 66 -6q76 0 145 24q145 47 230 209q37 72 49 148.5t12 136.5q0 51 -8 82q-20 82 -90 160q-60 71 -139.5 117t-165.5 57q66 47 98 98q70 96 106.5 217t36.5 231q0 131 -59 228q-72 117 -211 117 q-57 0 -90 -23t-35 -70zM127 1321q0 23 6 35q15 26 70 26q18 0 51 -4q49 -8 92 -45q86 -86 86 -235q0 -86 -28.5 -201t-90.5 -209q-29 -45 -66.5 -80t-94.5 -73l-5 -3q0 51 -2 82l-8 396l-4 168q0 63 -2 82q0 18 -2 28t-2 33zM150 494q8 -4 14 -2l31 2q86 0 163 -41 q80 -43 143.5 -115t84.5 -145q8 -31 8 -76q0 -47 -6 -90q-10 -88 -47 -163t-99 -130q-41 -39 -104.5 -60.5t-130.5 -21.5q-31 0 -39 2z" />
<glyph unicode="c" horiz-adv-x="688" d="M82 727q0 -55 4 -178l2 -96l4 -285l-2 -127q0 -131 25 -225q25 -100 92 -153.5t170 -53.5q70 0 130 22.5t91 63.5q6 6 6 16t-7 18.5t-17 8.5t-17 -8q-27 -35 -79 -55.5t-109 -20.5q-80 0 -129 37q-61 47 -85 129t-24 209l2 121q0 109 -2 139q0 207 -6 416l-2 114 q0 115 14.5 203t49.5 164q27 57 57.5 91t77.5 52q43 17 88 17q84 0 147 -58q6 -6 15 -6q10 0 19 8t9 17q0 10 -8 16q-37 35 -86 53t-104 19q-51 0 -100.5 -18.5t-86.5 -55.5q-80 -78 -108 -207q-31 -145 -31 -387z" />
<glyph unicode="d" horiz-adv-x="720" d="M82 1339l10 -1701q0 -8 5 -14.5t14 -8.5q31 -8 47 -8q53 0 133 39q18 6 41 16q90 41 147 131q27 41 42.5 82t45.5 145q33 119 52.5 267.5t19.5 292.5q0 268 -49 528q-23 121 -82 184q-49 53 -121 82t-149 29q-68 0 -129 -23q-12 -4 -17 -20q-10 -6 -10 -21zM129 1337 q53 18 111 19q61 0 117.5 -20.5t99.5 -59.5q35 -31 54 -73t32 -101q49 -266 49 -518q0 -354 -100 -641q-25 -74 -52 -119q-45 -84 -125 -117l-47 -20q-33 -14 -60.5 -23.5t-47.5 -9.5q-14 0 -21 2q0 174 -2 276z" />
<glyph unicode="e" horiz-adv-x="702" d="M82 1331l6 -74q2 -27 2 -124v-62q0 -143 -2 -184l-2 -185v-61l2 -242q2 -53 2 -239q0 -213 -2 -275l-2 -276q0 -10 8 -16.5t19 -6.5h4q152 23 317 23q82 0 105 -2h4q18 0 18 22q0 20 -22 25q-23 2 -101 2q-166 0 -303 -21l2 543q0 223 -2 287h4q31 2 142 2q104 0 186 6 q25 0 25 25q0 8 -6.5 15t-16.5 7h-2q-31 -2 -139 -2q-104 0 -189 -6h-4q-2 51 -2 231l4 359q0 115 -4 209v14q0 12 4 25q10 20 60 20h28q14 2 64 2q47 0 61 -2l246 -8q25 0 25 22q0 25 -25 25q-45 0 -137 6q-117 6 -172 6l-107 -4q-53 -4 -75.5 -21.5t-22.5 -64.5z" />
<glyph unicode="f" horiz-adv-x="700" d="M82 1327l6 -74l4 -125l-2 -215l-4 -217l2 -268q2 -59 2 -268l-4 -551q0 -23 25 -23t24 23l4 567l-4 285h6q74 6 164 6l162 4q23 0 22 25q0 8 -5 15t-15 7h-2l-162 -4q-90 0 -164 -4q-4 0 -6 -2v233l4 334q0 117 -6 230v14q0 12 4 24q12 23 66 23h22q18 2 49 2 q14 -2 35 -2h41l123 -4l123 -6q23 0 22 24q0 25 -22 25l-127 4q-86 6 -172 6l-117 -4q-51 -2 -74.5 -19.5t-23.5 -64.5z" />
<glyph unicode="g" horiz-adv-x="712" d="M82 459q2 -178 13 -377t24 -279q18 -98 91 -153.5t177 -55.5q76 0 129 37q63 47 85 128t22 225q0 168 8 415q0 6 -2 9v4q0 25 -23 24q-31 -2 -160 -10q-23 -4 -22 -27q0 -8 5 -15t15 -7h2l136 10l-7 -266q0 -61 3 -80l2 -90q0 -141 -43 -225q-23 -41 -64 -63.5t-92 -22.5 q-63 0 -117.5 30.5t-79.5 83.5q-16 35 -22 76t-8 102l-4 52q-20 283 -21 612q0 279 18 487q6 82 14.5 122t26.5 79q54 96 160 96l62 -2q66 -2 111.5 -45t64.5 -114q2 -8 8 -13.5t12 -5.5q10 0 17.5 7t7.5 18v6q-12 59 -45 106q-35 49 -82 71t-127 22q-16 0 -70 -5 q-49 -8 -90 -36.5t-65 -73.5q-33 -59 -44.5 -132t-17.5 -204l-2 -61q-6 -172 -6 -345v-114z" />
<glyph unicode="h" horiz-adv-x="743" d="M82 -383q0 -23 24 -23q25 0 25 23q10 395 10 850h2q31 -2 136 -2q178 0 313 14l4 -211l2 -104q2 -115 6 -280t8 -242q0 -23 25 -23t25 23q-14 369 -21 831q-12 621 -25 924q-2 24 -24 24h-2q-23 0 -23 -22v-2q13 -285 25 -869q-135 -14 -313 -14q-104 0 -136 2h-2 q0 268 -6 535q-2 76 -2 344q0 25 -24 24q-25 0 -25 -24q0 -248 8 -609q2 -57 2 -258q0 -541 -12 -911z" />
<glyph unicode="i" horiz-adv-x="311" d="M123 1409q0 -14 9 -24.5t24 -10.5q16 0 24 10.5t8 24.5q0 33 -32 33q-15 0 -24 -10.5t-9 -22.5zM133 -373q0 -10 6 -16t15 -6q23 0 22 22q10 358 10 772l-4 545l-4 316q1 22 -22 22q-8 0 -15.5 -6t-7.5 -16q0 -229 8 -560q2 -39 2 -174q0 -477 -10 -899z" />
<glyph unicode="j" horiz-adv-x="729" d="M82 -104v-2q12 -213 147 -271q43 -20 101 -20q74 0 140.5 40t102.5 107q43 82 58.5 184.5t15.5 249.5q0 184 -4 365q-2 16 -2 47l-4 133l-6 272q-2 20 -2 54l-8 323q-5 23 -25 23q-23 0 -23 -21v-2l23 -970l4 -213q0 -127 -12 -213q-20 -141 -67.5 -224.5t-143.5 -105.5 q-20 -4 -43 -4q-45 0 -89 20.5t-69 55.5q-37 55 -47 170q-4 23 -25 22q-10 0 -16 -6t-6 -14z" />
<glyph unicode="k" horiz-adv-x="780" d="M82 -379q0 -23 24 -22q25 0 25 22q12 485 14 836l80 4q184 0 285 -94q41 -39 57.5 -87.5t28.5 -134.5q29 -207 53 -542q4 -23 27 -23q8 0 15 5t7 16v2q-23 311 -59 592q-25 154 -125 229q-86 66 -211 80q86 31 154.5 88t111.5 135q55 96 77 210t30 308q2 29 8 121v4 q0 20 -22 21q-23 0 -27 -25l-6 -123q-8 -174 -24.5 -274.5t-59.5 -186.5q-57 -117 -165 -187.5t-235 -72.5l2 64q0 123 -8 301l-4 151l-4 340q0 12 -7 17.5t-15 5.5q-25 0 -25 -23v-80q0 -199 10 -522q2 -41 2 -186q0 -195 -4 -497t-10 -472z" />
<glyph unicode="l" horiz-adv-x="735" d="M86 676q0 -162 8 -402q8 -272 8 -462v-97q0 -43 4 -75q4 -29 32 -49.5t73 -20.5l39 2l190 6q106 0 191 6q22 4 22 25v2q0 8 -5 15t-15 7h-2q-95 -6 -191 -6l-127 -4l-45 -4q-41 -4 -51 -4q-31 0 -45 10q-22 22 -22 77v5q0 37 2 53q2 14 2 39q-4 264 -15 607 q-4 193 -4 434q-2 49 -2 219q0 248 -2 319q0 23 -25 23q-24 0 -24 -21z" />
<glyph unicode="m" horiz-adv-x="1140" d="M82 1374l6 -244q23 -694 23 -1093q0 -217 -7 -432q0 -23 25 -23t25 23q6 199 6 403q0 272 -10 658l-13 415l-4 125l367 -1138l57 -183q6 -16 25 -16q14 0 18 10q29 61 57 158l13 45q51 162 98 348l80 291q94 352 127 457l24 82l5 -455l6 -950v-263q0 -22 22 -22h2 q25 0 25 22v123l-4 523l-6 929l-1 209q0 10 -8 17.5t-18 7.5q-18 0 -32.5 -23.5t-22.5 -60.5l-11 -41q-33 -98 -92 -318l-69 -253q-86 -322 -152 -543l-14 -56l-19 -65q-14 -57 -26 -82l-398 1239q-18 68 -59 182q-2 18 -23 19q-8 0 -15 -6.5t-7 -16.5v-2z" />
<glyph unicode="n" horiz-adv-x="849" d="M82 1378l4 -135q31 -758 31 -1218q0 -209 -6 -418q0 -23 24 -23q25 0 25 23q6 205 6 411q0 430 -27 1072l-4 133l162 -453l342 -960l80 -222q6 -16 24 -16q8 0 15.5 5t7.5 17q2 29 2 130q0 162 -10 417l-2 64q-8 188 -8 354q0 135 -7 270l-4 203l-4 252v90q0 25 -24 25 q-25 0 -25 -25q0 -211 4 -407q2 -18 2 -49l4 -156l4 -273l7 -278l2 -59q12 -283 12 -422l-168 473l-344 960l-78 221q-6 16 -25 17q-23 0 -22 -21v-2z" />
<glyph unicode="o" horiz-adv-x="800" d="M82 461q0 -332 27 -563q8 -102 53 -189q37 -76 102.5 -108.5t132.5 -32.5q74 0 143.5 28.5t114.5 98.5q37 57 47.5 143t10.5 219v86l4 226q2 35 2 157l-2 316l2 153q0 111 -23.5 194t-83.5 142q-63 72 -192 72q-53 0 -98 -10q-55 -12 -108.5 -58.5t-78.5 -107.5 q-25 -59 -33 -121t-10 -168l-2 -55q-8 -248 -8 -422zM133 670l6 215q2 16 2 43v45q0 113 19 184q18 63 61 116.5t98 72.5q31 10 68 10l57 -2q63 -4 97 -25q72 -45 100.5 -129t28.5 -209v-110l2 -342q0 -133 -2 -170q-8 -244 -8 -414v-27q-2 -102 -23 -164.5t-78 -101.5 q-66 -43 -170 -43q-96 0 -155.5 70.5t-77.5 185.5q-14 102 -19.5 286.5t-5.5 508.5z" />
<glyph unicode="p" horiz-adv-x="700" d="M82 -389q0 -23 22 -23q25 0 25 23q12 377 16 823q113 4 213 55q104 55 172 146.5t82 200.5q6 53 6 104q0 162 -65.5 276.5t-196.5 155.5q-98 31 -161 31q-68 0 -103 -35l-4 -6q-6 -6 -6 -14q0 -199 4 -392q2 -18 2 -53l4 -149l4 -236q0 -176 -4 -457.5t-10 -449.5z M131 1339q16 12 51 13q23 0 60 -4q88 -8 147 -37q80 -35 129 -121t53 -189l2 -51q0 -193 -102 -311q-61 -72 -147 -113t-179 -43v82q0 129 -6 254q-8 231 -8 520z" />
<glyph unicode="q" horiz-adv-x="839" d="M82 428q0 -254 11 -409.5t54 -274.5t138 -160q43 -20 110 -20q131 0 213 74q35 -33 78 -33q35 0 64 22q6 6 6 15q0 8 -7.5 16t-17.5 8t-16 -6q-17 -10 -27 -10q-18 0 -47 22q45 61 57.5 153.5t12.5 235.5v74l4 225q2 35 2 158l-2 316l2 131q0 121 -23.5 206.5 t-83.5 149.5q-70 72 -196 72q-51 0 -92 -11q-55 -12 -108.5 -58t-78.5 -107q-25 -59 -33 -121t-10 -168l-2 -56q-8 -262 -8 -444zM133 532v130l6 258q2 12 2 57q4 119 19 170q18 63 61 116.5t98 71.5q25 8 66 8l57 -2q57 0 97 -22q72 -47 100.5 -131t28.5 -209v-109l2 -342 q0 -131 -2 -168q-8 -143 -11 -350v-80q0 -82 -10 -134t-39 -91q-29 37 -33 41q-53 59 -102 59q-43 0 -78 -33.5t-45 -82.5v-4q0 -10 7.5 -18.5t17.5 -8.5q6 0 12 5t8 13q8 33 31 56.5t47 23.5q8 0 33 -10q27 -16 45 -41l24 -35q-2 -4 -16 -14q-63 -43 -170 -43 q-99 0 -158 74q-53 68 -69.5 168t-22.5 284l-2 45z" />
<glyph unicode="r" horiz-adv-x="696" d="M82 -389q0 -23 24 -23q8 0 15.5 6.5t7.5 16.5q12 375 16 813l66 6q72 0 121 -18q68 -23 119 -115t65 -219q37 -295 45 -486q2 -10 9.5 -16t15.5 -6q23 0 22 20v2q-18 330 -51 541q-8 66 -39 141q-72 156 -194 191q113 49 189.5 144.5t92.5 211.5q8 64 8 107 q0 154 -63 268q-55 102 -158.5 143t-197.5 41q-70 0 -101 -32q-4 -4 -4 -7q-6 -6 -6 -14v-80q0 -195 10 -508q2 -41 2 -182q0 -190 -4 -485t-10 -461zM131 1319q16 12 53 12q23 0 56 -4q86 -8 145 -37q78 -31 127 -117t53 -188l2 -51q0 -190 -100 -307q-102 -121 -260 -150 q-33 0 -62 -4v80q0 127 -6 252q-8 227 -8 514z" />
<glyph unicode="s" horiz-adv-x="757" d="M82 -174v-4q20 -113 72 -172q33 -39 89 -58.5t124 -19.5l63 4q68 8 111 42t75 99q59 137 60 265q0 127 -68.5 246.5t-204.5 254.5l-51 47q-45 39 -82 82q-67 80 -104 180.5t-37 208.5q0 74 14.5 138.5t36.5 105.5q20 43 69.5 72t123.5 29q90 0 145 -55.5t68 -147.5 q4 -16 18 -17q12 0 20.5 7.5t8.5 19.5v4q-10 57 -33 103q-29 55 -86 95t-143 40q-41 0 -95 -17q-115 -39 -154.5 -141t-39.5 -238q0 -63 12 -129q31 -154 142 -292q10 -16 79 -78l54 -49q45 -45 120 -134q137 -168 138 -337q0 -117 -52 -234q-18 -43 -40 -72 q-43 -57 -160 -57q-57 0 -113 21q-106 37 -133 196q-4 16 -20 16q-12 0 -19.5 -6t-7.5 -18z" />
<glyph unicode="t" horiz-adv-x="866" d="M82 1376q0 -25 24 -24q131 -4 295 -4q-4 -20 -4 -48l2 -57v-321l7 -904q0 -332 -3 -426q0 -24 25 -24h2q25 0 25 24v265l-2 657l-4 662l2 124q0 29 2 35v13l127 2l180 -4q25 0 24 24q0 25 -24 25l-187 4l-249 -2l-218 4h-4q-20 0 -20 -25z" />
<glyph unicode="u" horiz-adv-x="798" d="M82 801q0 -373 14 -752q0 -35 2 -65q4 -111 29 -197q31 -96 100.5 -151.5t163.5 -55.5q129 0 211 68q59 51 79.5 126.5t20.5 202.5q0 170 9 402l2 72l4 284q0 219 -2 283l-2 282v89q0 12 -7.5 17t-15.5 5q-25 0 -24 -22l-2 -353l2 -352v-76q0 -166 -7 -336l-6 -247v-91 q0 -106 -22 -163q-25 -61 -77 -97t-122 -45l-45 -2q-31 0 -57 6q-98 23 -150 148q-18 49 -24 100t-13 156q-6 115 -10 356.5t-4 415.5q0 324 14 575v5q0 18 -22 18q-20 0 -25 -23q-14 -213 -14 -583z" />
<glyph unicode="v" horiz-adv-x="817" d="M82 1389l51 -416q29 -240 62 -484q16 -127 40.5 -250.5t77.5 -367.5q18 -74 39 -176l15 -68q4 -16 22 -16t23 16q190 922 323 1778v4q0 10 -7 18.5t-17 8.5q-16 0 -21 -19q-106 -700 -301 -1665l-39 180q-68 307 -91 449.5t-62 452.5q-10 92 -15 120q-25 223 -55 449 q-4 16 -18 16q-10 0 -18.5 -7t-8.5 -19v-4z" />
<glyph unicode="w" horiz-adv-x="1153" d="M82 1419q0 -57 8 -145l4 -72q25 -342 33 -426q33 -453 74 -930q2 -47 16 -208q0 -10 7 -17.5t18 -7.5q16 0 32 29q12 25 21.5 59.5t11.5 52.5q39 147 82 352q59 268 133 621l41 195l19 96q115 -422 284 -1057l39 -147l49 -183q2 -8 8.5 -12t14.5 -4q25 0 24 23v32 q0 125 13 348l6 125l12 273q2 90 12 237l3 52q23 565 24 684v4q0 18 -22 18q-8 0 -15.5 -6t-9.5 -16q-6 -298 -20 -570l-19 -411l-24 -562q-2 -10 -3 -43l-309 1143l-12 47q-31 106 -35 135q-6 16 -24 17q-8 0 -14.5 -4t-8.5 -13q-168 -848 -272 -1275l-27 -105l-37 461 q-41 469 -74 948l-6 72q0 12 -5 76.5t-5 113.5q0 12 -7 17.5t-16 5.5q-25 0 -24 -23z" />
<glyph unicode="x" horiz-adv-x="856" d="M82 -373q0 -10 7 -16t17 -6q16 0 23 16q129 395 279 791q121 -354 177 -505t122 -290q6 -12 18 -12q10 0 17.5 7t7.5 17q0 8 -2 11q-76 170 -142.5 352t-163.5 475l-6 18l84 224q135 352 252 667q2 2 2 8q0 8 -7 14.5t-17 6.5q-16 0 -23 -16q-82 -230 -238 -633 q-12 -33 -77 -201q-90 274 -215 647l-68 197q-6 16 -23 16q-10 0 -17 -6t-7 -14q0 -6 2 -9q66 -180 178 -534l23 -68l22 -67l78 -234q-182 -477 -301 -848q-2 -2 -2 -8z" />
<glyph unicode="y" horiz-adv-x="811" d="M82 1389q33 -139 51 -230q37 -176 70 -296t100 -290l55 -145l4 -285q0 -258 -12 -518q0 -22 21 -22h2q25 0 24 22q12 270 13 543q0 188 -2 244q0 4 2 4q193 522 319 981v4q0 10 -6 17t-16 7q-16 0 -23 -16q-115 -414 -299 -920q-29 80 -39 101q-70 182 -101.5 296.5 t-60.5 264.5q-29 141 -57 250q-4 16 -21 16q-25 0 -24 -22v-6z" />
<glyph unicode="z" horiz-adv-x="845" d="M84 -371q0 -10 6 -16t16 -6l191 -4l188 -2q131 0 244 10q23 4 23 24q0 23 -21 23h-2q-100 -8 -250 -8l-336 4q25 51 93 235l24 68q121 319 211 580q90 244 197 557q14 41 65 192q2 10 17 41q10 25 14 49q4 43 -86 43q-33 0 -45 -2t-29 -2h-84q-201 0 -348 -18 q-23 -4 -22 -27q0 -8 5 -14t13 -6h4q139 18 371 18q115 0 145 -2q14 0 21 -2q0 -6 -2 -6l-19 -58l-61 -184q-215 -618 -391 -1091l-33 -93q-63 -176 -117 -290q-2 -4 -2 -13z" />
<glyph unicode="~" d="M299 1507q4 -16 18 -16q16 0 17 14v2v4q0 27 35 27q4 0 20 -4q12 -6 41 -35q31 -31 64 -31q35 2 53 29t14 59q-2 12 -14 13q-8 0 -14.5 -5t-6.5 -14v-2v-4q0 -16 -11 -28.5t-26 -12.5l-16 4q-8 3 -18 17q-8 12 -19 18q-27 25 -57 31q-31 4 -56.5 -15.5t-23.5 -50.5z" />
<glyph unicode="&#xa8;" d="M354 1520q0 -12 8.5 -21.5t22.5 -9.5q12 0 20.5 9t8.5 22q0 31 -29 30q-14 0 -22.5 -9t-8.5 -21zM465 1524q0 -12 8 -22.5t23 -10.5q14 0 21 9t7 24q0 12 -8 21t-20 9q-14 0 -22.5 -9t-8.5 -21z" />
<glyph unicode="&#xad;" horiz-adv-x="866" d="M82 520q0 -25 24 -24h654q25 0 24 24q0 25 -24 25h-654q-24 0 -24 -25z" />
<glyph unicode="&#xb0;" horiz-adv-x="413" d="M82 1432q0 -51 33 -84q16 -16 42.5 -27.5t53.5 -11.5l18 2q43 2 73 34.5t30 77.5q0 27 -8 43l-5 9q-18 30 -49.5 45.5t-70.5 15.5q-49 0 -83 -28.5t-34 -75.5zM115 1427q0 37 22.5 57.5t55.5 20.5q31 0 58.5 -14t41.5 -39q6 -14 6 -31q0 -43 -33 -63q-20 -15 -61 -15 q-41 4 -65.5 27t-24.5 57z" />
<glyph unicode="&#xb4;" d="M385 1505q0 -8 6 -15t15 -7q8 0 10 2l121 61q8 6 8 15q0 8 -6.5 14t-14.5 6t-10 -2q-33 -10 -61.5 -25.5t-57.5 -33.5q-10 -4 -10 -15z" />
<glyph unicode="&#xbf;" horiz-adv-x="761" d="M80 -16q0 -111 39 -202t117 -144q71 -50 161 -50q76 0 142 33q70 31 107.5 90.5t33.5 134.5q0 8 -6 13.5t-15 5.5q-8 0 -14 -5t-6 -14v-2q2 -57 -33 -112q-37 -53 -89 -79t-114 -26q-104 0 -174 70q-53 49 -80.5 125t-27.5 162q0 102 41 196q23 47 58.5 80t107.5 80 q82 53 108 80q80 72 96 225q6 72 9.5 159t3.5 154q0 98 -8 240q-2 20 -23 21q-8 0 -14 -5.5t-6 -13.5v-2q8 -100 8 -250q0 -98 -2 -125q-4 -182 -29 -268t-104 -137q-25 -18 -66 -43q-68 -41 -94 -66q-82 -74 -113 -198q-14 -66 -14 -127zM479 1331q0 -14 8.5 -23.5 t22.5 -7.5q14 0 22.5 9.5t8.5 21.5t-9.5 22.5t-23.5 8.5q-12 0 -20.5 -9.5t-8.5 -21.5z" />
<glyph unicode="&#xc1;" d="M82 -391q0 -8 6 -12.5t16 -4.5q6 0 14.5 5.5t10.5 11.5l12 45q141 516 203 813h254q72 -449 150 -842q4 -10 14 -10q12 0 25.5 9t11.5 14q-111 547 -176.5 960.5t-96.5 798.5q-3 22 -26 22t-23 -22q0 -47 -20 -127l-13 -56l-61 -276q-31 -131 -64 -332q-45 -256 -86 -422 l-149 -565q-2 -4 -2 -10zM350 516q11 33 21 107q10 61 63 307l12 61l41 195q0 4 5 20q2 6 2 19q25 -219 79 -602l15 -107h-238zM483 1505q0 -8 6.5 -15t14.5 -7t10 2l121 61q8 6 8 15q0 8 -6 14t-14 6t-11 -2q-33 -10 -61.5 -25.5t-56.5 -33.5q-10 -4 -11 -15z" />
<glyph unicode="&#xc2;" d="M82 -391q0 -8 6 -12.5t16 -4.5q6 0 14.5 5.5t10.5 11.5l12 45q141 516 203 813h254q72 -449 150 -842q4 -10 14 -10q12 0 25.5 9t11.5 14q-111 547 -176.5 960.5t-96.5 798.5q-3 22 -26 22t-23 -22q0 -47 -20 -127l-13 -56l-61 -276q-31 -131 -64 -332q-45 -256 -86 -422 l-149 -565q-2 -4 -2 -10zM350 516q11 33 21 107q10 61 63 307l12 61l41 195q0 4 5 20q2 6 2 19q25 -219 79 -602l15 -107h-238zM383 1518q0 -10 5 -16.5t13 -6.5t11 2q4 2 100 47q12 -6 88 -47q4 -2 10 -2q8 0 14.5 6t6.5 15q0 10 -10 16l-80 43q-4 2 -13.5 6t-15.5 4 l-10 -2q-6 -2 -37 -14l-74 -37q-8 -6 -8 -14z" />
<glyph unicode="&#xc3;" d="M82 -391q0 -8 6 -12.5t16 -4.5q6 0 14.5 5.5t10.5 11.5l12 45q141 516 203 813h254q72 -449 150 -842q4 -10 14 -10q12 0 25.5 9t11.5 14q-111 547 -176.5 960.5t-96.5 798.5q-3 22 -26 22t-23 -22q0 -47 -20 -127l-13 -56l-61 -276q-31 -131 -64 -332q-45 -256 -86 -422 l-149 -565q-2 -4 -2 -10zM350 516q11 33 21 107q10 61 63 307l12 61l41 195q0 4 5 20q2 6 2 19q25 -219 79 -602l15 -107h-238zM375 1507q4 -16 18 -16q16 0 17 14v2v4q0 27 34 27q4 0 21 -4q12 -6 41 -35q31 -31 63 -31q35 2 53.5 29t14.5 59q-2 12 -14 13q-8 0 -14.5 -5 t-6.5 -14v-2v-4q0 -16 -11 -28.5t-26 -12.5l-16 4q-9 3 -19 17q-10 12 -18 18q-27 25 -57 31q-31 4 -56.5 -15.5t-23.5 -50.5z" />
<glyph unicode="&#xc4;" d="M82 -391q0 -8 6 -12.5t16 -4.5q6 0 14.5 5.5t10.5 11.5l12 45q141 516 203 813h254q72 -449 150 -842q4 -10 14 -10q12 0 25.5 9t11.5 14q-111 547 -176.5 960.5t-96.5 798.5q-3 22 -26 22t-23 -22q0 -47 -20 -127l-13 -56l-61 -276q-31 -131 -64 -332q-45 -256 -86 -422 l-149 -565q-2 -4 -2 -10zM350 516q11 33 21 107q10 61 63 307l12 61l41 195q0 4 5 20q2 6 2 19q25 -219 79 -602l15 -107h-238zM422 1522q0 -12 8 -21.5t23 -9.5q12 0 20 9t8 22q0 31 -28 30q-14 0 -22.5 -9t-8.5 -21zM532 1526q0 -12 9.5 -22.5t21.5 -10.5q15 0 22 9t7 24 q0 12 -8.5 21t-20.5 9q-14 0 -22.5 -9t-8.5 -21z" />
<glyph unicode="&#xc5;" d="M82 -391q0 -8 6 -12.5t16 -4.5q6 0 14.5 5.5t10.5 11.5l12 45q141 516 203 813h254q72 -449 150 -842q4 -10 14 -10q12 0 25.5 9t11.5 14q-111 547 -176.5 960.5t-96.5 798.5q-3 22 -26 22t-23 -22q0 -47 -20 -127l-13 -56l-61 -276q-31 -131 -64 -332q-45 -256 -86 -422 l-149 -565q-2 -4 -2 -10zM350 516q11 33 21 107q10 61 63 307l12 61l41 195q0 4 5 20q2 6 2 19q25 -219 79 -602l15 -107h-238zM449 1550q0 -23 11 -40t32 -25q4 -2 16 -2q27 0 46 17.5t19 45.5q0 33 -32 78q-6 10 -19 10l-8 -2q-23 2 -41 -17.5t-22 -47.5zM494 1548 q0 12 6 27q4 16 6 12h6q18 -33 18 -45q0 -6 -5 -10t-13 -4q-6 0 -12 5t-6 15z" />
<glyph unicode="&#xc7;" horiz-adv-x="557" d="M41 829l4 -301l4 -200v-197q0 -209 21 -309q35 -195 219 -205q12 -31 51 -61q25 -23 25 -48q0 -20 -16.5 -33.5t-39.5 -11.5h-4q-10 0 -16 -6t-6 -16q0 -14 16 -19l16 -2q35 0 64 23q27 23 27 61q0 43 -37 80q-29 29 -31 33q53 4 99 24.5t73 53.5q4 8 4 14q0 10 -6 17.5 t-14 7.5t-15 -8q-24 -31 -72.5 -49.5t-99.5 -18.5q-78 0 -117 33q-59 45 -78.5 135t-19.5 278v152l-4 434l-2 125l-2 100q0 82 12 146q12 63 40 123.5t57 95.5q27 31 66.5 47t84.5 16q78 0 135 -51q6 -6 15 -6q10 0 16 7t6 16q0 8 -6 14q-35 31 -81 47t-93 16 q-98 0 -168 -65q-121 -121 -127 -393v-99z" />
<glyph unicode="&#xc9;" horiz-adv-x="702" d="M82 1331l6 -74q2 -27 2 -124v-62q0 -143 -2 -184l-2 -185v-61l2 -242q2 -53 2 -239q0 -213 -2 -275l-2 -276q0 -10 8 -16.5t19 -6.5h4q152 23 317 23q82 0 105 -2h4q18 0 18 22q0 20 -22 25q-23 2 -101 2q-166 0 -303 -21l2 543q0 223 -2 287h4q31 2 142 2q104 0 186 6 q25 0 25 25q0 8 -6.5 15t-16.5 7h-2q-31 -2 -139 -2q-104 0 -189 -6h-4q-2 51 -2 231l4 359q0 115 -4 209v14q0 12 4 25q10 20 60 20h28q14 2 64 2q47 0 61 -2l246 -8q25 0 25 22q0 25 -25 25q-45 0 -137 6q-117 6 -172 6l-107 -4q-53 -4 -75.5 -21.5t-22.5 -64.5zM324 1524 q0 -8 6 -15.5t14 -7.5t10 2l121 62q8 6 8 14t-6 14t-14 6t-10 -2q-33 -10 -62 -25.5t-57 -33.5q-10 -4 -10 -14z" />
<glyph unicode="&#xca;" horiz-adv-x="702" d="M82 1331l6 -74q2 -27 2 -124v-62q0 -143 -2 -184l-2 -185v-61l2 -242q2 -53 2 -239q0 -213 -2 -275l-2 -276q0 -10 8 -16.5t19 -6.5h4q152 23 317 23q82 0 105 -2h4q18 0 18 22q0 20 -22 25q-23 2 -101 2q-166 0 -303 -21l2 543q0 223 -2 287h4q31 2 142 2q104 0 186 6 q25 0 25 25q0 8 -6.5 15t-16.5 7h-2q-31 -2 -139 -2q-104 0 -189 -6h-4q-2 51 -2 231l4 359q0 115 -4 209v14q0 12 4 25q10 20 60 20h28q14 2 64 2q47 0 61 -2l246 -8q25 0 25 22q0 25 -25 25q-45 0 -137 6q-117 6 -172 6l-107 -4q-53 -4 -75.5 -21.5t-22.5 -64.5zM242 1518 q0 -10 5 -16.5t13 -6.5t10 2q5 2 101 47l88 -47q4 -2 10 -2q8 0 14 6t6 15q0 10 -10 16l-80 43q-4 2 -13 6t-15 4l-11 -2q-6 -2 -36 -14l-74 -37q-8 -6 -8 -14z" />
<glyph unicode="&#xcd;" horiz-adv-x="378" d="M133 -373q0 -10 6 -16t15 -6q23 0 22 22q10 358 10 772l-4 545l-4 316q1 22 -22 22q-8 0 -15.5 -6t-7.5 -16q0 -229 8 -560q2 -39 2 -174q0 -477 -10 -899zM137 1442q0 -8 6.5 -15.5t14.5 -7.5t10 2l121 62q8 6 8 14t-6 14.5t-15 6.5q-8 0 -10 -2q-33 -10 -61.5 -25.5 t-57.5 -34.5q-10 -4 -10 -14z" />
<glyph unicode="&#xd1;" horiz-adv-x="849" d="M82 1378l4 -135q31 -758 31 -1218q0 -209 -6 -418q0 -23 24 -23q25 0 25 23q6 205 6 411q0 430 -27 1072l-4 133l162 -453l342 -960l80 -222q6 -16 24 -16q8 0 15.5 5t7.5 17q2 29 2 130q0 162 -10 417l-2 64q-8 188 -8 354q0 135 -7 270l-4 203l-4 252v90q0 25 -24 25 q-25 0 -25 -25q0 -211 4 -407q2 -18 2 -49l4 -156l4 -273l7 -278l2 -59q12 -283 12 -422l-168 473l-344 960l-78 221q-6 16 -25 17q-23 0 -22 -21v-2zM301 1507q4 -16 18 -16q16 0 17 14v2v4q0 27 35 27q4 0 20 -4q12 -6 41 -35q31 -31 64 -31q35 2 53 29t14 59 q-2 12 -14 13q-8 0 -14.5 -5t-6.5 -14v-2v-4q0 -16 -11 -28.5t-25 -12.5l-17 4q-8 3 -18 17q-10 12 -19 18q-27 25 -57 31q-31 4 -56.5 -15.5t-23.5 -50.5z" />
<glyph unicode="&#xd3;" horiz-adv-x="800" d="M82 461q0 -332 27 -563q8 -102 53 -189q37 -76 102.5 -108.5t132.5 -32.5q74 0 143.5 28.5t114.5 98.5q37 57 47.5 143t10.5 219v86l4 226q2 35 2 157l-2 316l2 153q0 111 -23.5 194t-83.5 142q-63 72 -192 72q-53 0 -98 -10q-55 -12 -108.5 -58.5t-78.5 -107.5 q-25 -59 -33 -121t-10 -168l-2 -55q-8 -248 -8 -422zM133 670l6 215q2 16 2 43v45q0 113 19 184q18 63 61 116.5t98 72.5q31 10 68 10l57 -2q63 -4 97 -25q72 -45 100.5 -129t28.5 -209v-110l2 -342q0 -133 -2 -170q-8 -244 -8 -414v-27q-2 -102 -23 -164.5t-78 -101.5 q-66 -43 -170 -43q-96 0 -155.5 70.5t-77.5 185.5q-14 102 -19.5 286.5t-5.5 508.5zM373 1503q0 -8 6 -15t14 -7t10 2l121 61q8 6 8 15q0 8 -6 14t-14 6t-10 -2q-33 -10 -61.5 -25.5t-57.5 -33.5q-10 -4 -10 -15z" />
<glyph unicode="&#xd4;" horiz-adv-x="800" d="M82 461q0 -332 27 -563q8 -102 53 -189q37 -76 102.5 -108.5t132.5 -32.5q74 0 143.5 28.5t114.5 98.5q37 57 47.5 143t10.5 219v86l4 226q2 35 2 157l-2 316l2 153q0 111 -23.5 194t-83.5 142q-63 72 -192 72q-53 0 -98 -10q-55 -12 -108.5 -58.5t-78.5 -107.5 q-25 -59 -33 -121t-10 -168l-2 -55q-8 -248 -8 -422zM133 670l6 215q2 16 2 43v45q0 113 19 184q18 63 61 116.5t98 72.5q31 10 68 10l57 -2q63 -4 97 -25q72 -45 100.5 -129t28.5 -209v-110l2 -342q0 -133 -2 -170q-8 -244 -8 -414v-27q-2 -102 -23 -164.5t-78 -101.5 q-66 -43 -170 -43q-96 0 -155.5 70.5t-77.5 185.5q-14 102 -19.5 286.5t-5.5 508.5zM297 1505q0 -10 5 -16t13 -6t11 2q4 2 100 47q12 -6 88 -47q4 -2 10 -2q8 0 14.5 6t6.5 14q0 10 -10 17l-80 43q-4 2 -13.5 6t-15.5 4l-10 -2q-6 -2 -37 -15l-74 -36q-8 -6 -8 -15z" />
<glyph unicode="&#xd5;" horiz-adv-x="800" d="M82 461q0 -332 27 -563q8 -102 53 -189q37 -76 102.5 -108.5t132.5 -32.5q74 0 143.5 28.5t114.5 98.5q37 57 47.5 143t10.5 219v86l4 226q2 35 2 157l-2 316l2 153q0 111 -23.5 194t-83.5 142q-63 72 -192 72q-53 0 -98 -10q-55 -12 -108.5 -58.5t-78.5 -107.5 q-25 -59 -33 -121t-10 -168l-2 -55q-8 -248 -8 -422zM133 670l6 215q2 16 2 43v45q0 113 19 184q18 63 61 116.5t98 72.5q31 10 68 10l57 -2q63 -4 97 -25q72 -45 100.5 -129t28.5 -209v-110l2 -342q0 -133 -2 -170q-8 -244 -8 -414v-27q-2 -102 -23 -164.5t-78 -101.5 q-66 -43 -170 -43q-96 0 -155.5 70.5t-77.5 185.5q-14 102 -19.5 286.5t-5.5 508.5zM301 1507q4 -16 18 -16q16 0 17 14v2v4q0 27 35 27q4 0 20 -4q12 -6 41 -35q31 -31 64 -31q35 2 53 29t14 59q-2 12 -14 13q-8 0 -14.5 -5t-6.5 -14v-2v-4q0 -16 -11 -28.5t-25 -12.5 l-17 4q-8 3 -18 17q-10 12 -19 18q-27 25 -57 31q-31 4 -56.5 -15.5t-23.5 -50.5z" />
<glyph unicode="&#xd6;" horiz-adv-x="800" d="M82 461q0 -332 27 -563q8 -102 53 -189q37 -76 102.5 -108.5t132.5 -32.5q74 0 143.5 28.5t114.5 98.5q37 57 47.5 143t10.5 219v86l4 226q2 35 2 157l-2 316l2 153q0 111 -23.5 194t-83.5 142q-63 72 -192 72q-53 0 -98 -10q-55 -12 -108.5 -58.5t-78.5 -107.5 q-25 -59 -33 -121t-10 -168l-2 -55q-8 -248 -8 -422zM133 670l6 215q2 16 2 43v45q0 113 19 184q18 63 61 116.5t98 72.5q31 10 68 10l57 -2q63 -4 97 -25q72 -45 100.5 -129t28.5 -209v-110l2 -342q0 -133 -2 -170q-8 -244 -8 -414v-27q-2 -102 -23 -164.5t-78 -101.5 q-66 -43 -170 -43q-96 0 -155.5 70.5t-77.5 185.5q-14 102 -19.5 286.5t-5.5 508.5zM326 1522q0 -12 8 -21.5t22 -9.5q13 0 21 9t8 22q0 31 -29 30q-14 0 -22 -9t-8 -21zM436 1526q0 -14 8.5 -23.5t22.5 -9.5t21.5 9t7.5 24q0 12 -8.5 21t-20.5 9q-14 0 -22.5 -9t-8.5 -21z " />
<glyph unicode="&#xda;" horiz-adv-x="798" d="M82 801q0 -373 14 -752q0 -35 2 -65q4 -111 29 -197q31 -96 100.5 -151.5t163.5 -55.5q129 0 211 68q59 51 79.5 126.5t20.5 202.5q0 170 9 402l2 72l4 284q0 219 -2 283l-2 282v89q0 12 -7.5 17t-15.5 5q-25 0 -24 -22l-2 -353l2 -352v-76q0 -166 -7 -336l-6 -247v-91 q0 -106 -22 -163q-25 -61 -77 -97t-122 -45l-45 -2q-31 0 -57 6q-98 23 -150 148q-18 49 -24 100t-13 156q-6 115 -10 356.5t-4 415.5q0 324 14 575v5q0 18 -22 18q-20 0 -25 -23q-14 -213 -14 -583zM354 1509q0 -8 6.5 -15t14.5 -7t10 2l121 61q8 6 8 15q0 8 -6 14t-14 6 t-11 -2q-33 -10 -61.5 -25.5t-56.5 -33.5q-10 -4 -11 -15z" />
<glyph unicode="&#xdc;" horiz-adv-x="798" d="M82 801q0 -373 14 -752q0 -35 2 -65q4 -111 29 -197q31 -96 100.5 -151.5t163.5 -55.5q129 0 211 68q59 51 79.5 126.5t20.5 202.5q0 170 9 402l2 72l4 284q0 219 -2 283l-2 282v89q0 12 -7.5 17t-15.5 5q-25 0 -24 -22l-2 -353l2 -352v-76q0 -166 -7 -336l-6 -247v-91 q0 -106 -22 -163q-25 -61 -77 -97t-122 -45l-45 -2q-31 0 -57 6q-98 23 -150 148q-18 49 -24 100t-13 156q-6 115 -10 356.5t-4 415.5q0 324 14 575v5q0 18 -22 18q-20 0 -25 -23q-14 -213 -14 -583zM326 1522q0 -12 8 -21.5t22 -9.5q13 0 21 9t8 22q0 31 -29 30 q-14 0 -22 -9t-8 -21zM436 1526q0 -14 8.5 -23.5t22.5 -9.5t21.5 9t7.5 24q0 12 -8.5 21t-20.5 9q-14 0 -22.5 -9t-8.5 -21z" />
<glyph unicode="&#xdf;" horiz-adv-x="684" d="M82 621q0 -186 8 -451q0 -31 2 -49q4 -197 4 -404v-90q0 -23 23 -22q25 0 24 22v111q0 221 -6 442q0 31 -2 49q-4 193 -4 396v92q0 236 14 370q8 98 29 173q14 66 38 96t71 30q41 0 84 -41.5t74.5 -107.5t37.5 -133q2 -10 2 -49q0 -160 -88 -334l-20 -41 q-20 -37 -30.5 -65.5t-10.5 -55.5q0 -41 21.5 -66.5t70.5 -58.5q37 -25 51 -39q80 -76 80 -225q0 -80 -29 -205q-27 -109 -77 -190.5t-119 -106.5q-16 -6 -17 -22q0 -10 6.5 -17.5t14.5 -7.5l8 2q78 27 137.5 114t91 201.5t31.5 219.5q0 76 -18 143q-16 59 -50 97t-114 98 q-37 24 -37 65q0 37 31 94l18 37q96 188 96 373q0 104 -49 206.5t-131 145.5q-39 16 -67 17q-35 0 -76 -23q-45 -29 -72 -116t-35 -193q-6 -86 -11 -231.5t-5 -249.5z" />
<glyph unicode="&#xe1;" d="M82 -391q0 -8 6 -12.5t16 -4.5q6 0 14.5 5.5t10.5 11.5l12 45q141 516 203 813h254q72 -449 150 -842q4 -10 14 -10q12 0 25.5 9t11.5 14q-111 547 -176.5 960.5t-96.5 798.5q-3 22 -26 22t-23 -22q0 -47 -20 -127l-13 -56l-61 -276q-31 -131 -64 -332q-45 -256 -86 -422 l-149 -565q-2 -4 -2 -10zM350 516q11 33 21 107q10 61 63 307l12 61l41 195q0 4 5 20q2 6 2 19q25 -219 79 -602l15 -107h-238zM483 1505q0 -8 6.5 -15t14.5 -7t10 2l121 61q8 6 8 15q0 8 -6 14t-14 6t-11 -2q-33 -10 -61.5 -25.5t-56.5 -33.5q-10 -4 -11 -15z" />
<glyph unicode="&#xe2;" d="M82 -391q0 -8 6 -12.5t16 -4.5q6 0 14.5 5.5t10.5 11.5l12 45q141 516 203 813h254q72 -449 150 -842q4 -10 14 -10q12 0 25.5 9t11.5 14q-111 547 -176.5 960.5t-96.5 798.5q-3 22 -26 22t-23 -22q0 -47 -20 -127l-13 -56l-61 -276q-31 -131 -64 -332q-45 -256 -86 -422 l-149 -565q-2 -4 -2 -10zM350 516q11 33 21 107q10 61 63 307l12 61l41 195q0 4 5 20q2 6 2 19q25 -219 79 -602l15 -107h-238zM383 1518q0 -10 5 -16.5t13 -6.5t11 2q4 2 100 47q12 -6 88 -47q4 -2 10 -2q8 0 14.5 6t6.5 15q0 10 -10 16l-80 43q-4 2 -13.5 6t-15.5 4 l-10 -2q-6 -2 -37 -14l-74 -37q-8 -6 -8 -14z" />
<glyph unicode="&#xe3;" d="M82 -391q0 -8 6 -12.5t16 -4.5q6 0 14.5 5.5t10.5 11.5l12 45q141 516 203 813h254q72 -449 150 -842q4 -10 14 -10q12 0 25.5 9t11.5 14q-111 547 -176.5 960.5t-96.5 798.5q-3 22 -26 22t-23 -22q0 -47 -20 -127l-13 -56l-61 -276q-31 -131 -64 -332q-45 -256 -86 -422 l-149 -565q-2 -4 -2 -10zM350 516q11 33 21 107q10 61 63 307l12 61l41 195q0 4 5 20q2 6 2 19q25 -219 79 -602l15 -107h-238zM375 1507q4 -16 18 -16q16 0 17 14v2v4q0 27 34 27q4 0 21 -4q12 -6 41 -35q31 -31 63 -31q35 2 53.5 29t14.5 59q-2 12 -14 13q-8 0 -14.5 -5 t-6.5 -14v-2v-4q0 -16 -11 -28.5t-26 -12.5l-16 4q-9 3 -19 17q-10 12 -18 18q-27 25 -57 31q-31 4 -56.5 -15.5t-23.5 -50.5z" />
<glyph unicode="&#xe4;" d="M82 -391q0 -8 6 -12.5t16 -4.5q6 0 14.5 5.5t10.5 11.5l12 45q141 516 203 813h254q72 -449 150 -842q4 -10 14 -10q12 0 25.5 9t11.5 14q-111 547 -176.5 960.5t-96.5 798.5q-3 22 -26 22t-23 -22q0 -47 -20 -127l-13 -56l-61 -276q-31 -131 -64 -332q-45 -256 -86 -422 l-149 -565q-2 -4 -2 -10zM350 516q11 33 21 107q10 61 63 307l12 61l41 195q0 4 5 20q2 6 2 19q25 -219 79 -602l15 -107h-238zM422 1522q0 -12 8 -21.5t23 -9.5q12 0 20 9t8 22q0 31 -28 30q-14 0 -22.5 -9t-8.5 -21zM532 1526q0 -12 9.5 -22.5t21.5 -10.5q15 0 22 9t7 24 q0 12 -8.5 21t-20.5 9q-14 0 -22.5 -9t-8.5 -21z" />
<glyph unicode="&#xe5;" d="M82 -391q0 -8 6 -12.5t16 -4.5q6 0 14.5 5.5t10.5 11.5l12 45q141 516 203 813h254q72 -449 150 -842q4 -10 14 -10q12 0 25.5 9t11.5 14q-111 547 -176.5 960.5t-96.5 798.5q-3 22 -26 22t-23 -22q0 -47 -20 -127l-13 -56l-61 -276q-31 -131 -64 -332q-45 -256 -86 -422 l-149 -565q-2 -4 -2 -10zM350 516q11 33 21 107q10 61 63 307l12 61l41 195q0 4 5 20q2 6 2 19q25 -219 79 -602l15 -107h-238zM449 1550q0 -23 11 -40t32 -25q4 -2 16 -2q27 0 46 17.5t19 45.5q0 33 -32 78q-6 10 -19 10l-8 -2q-23 2 -41 -17.5t-22 -47.5zM494 1548 q0 12 6 27q4 16 6 12h6q18 -33 18 -45q0 -6 -5 -10t-13 -4q-6 0 -12 5t-6 15z" />
<glyph unicode="&#xe7;" horiz-adv-x="1228" d="M340 829l4 -301l4 -200v-197q0 -209 21 -309q35 -195 219 -205q12 -31 51 -61q25 -23 25 -48q0 -20 -16.5 -33.5t-39.5 -11.5h-4q-10 0 -16 -6t-6 -16q0 -14 16 -19l16 -2q35 0 64 23q27 23 27 61q0 43 -37 80q-29 29 -31 33q53 4 99 24.5t73 53.5q4 8 4 14q0 10 -6 17.5 t-14 7.5t-15 -8q-24 -31 -72.5 -49.5t-99.5 -18.5q-78 0 -117 33q-59 45 -78.5 135t-19.5 278v152l-4 434l-2 125l-2 100q0 82 12 146q12 63 40 123.5t57 95.5q27 31 66.5 47t84.5 16q78 0 135 -51q6 -6 15 -6q10 0 16 7t6 16q0 8 -6 14q-35 31 -81 47t-93 16 q-98 0 -168 -65q-121 -121 -127 -393v-99z" />
<glyph unicode="&#xe9;" horiz-adv-x="702" d="M82 1331l6 -74q2 -27 2 -124v-62q0 -143 -2 -184l-2 -185v-61l2 -242q2 -53 2 -239q0 -213 -2 -275l-2 -276q0 -10 8 -16.5t19 -6.5h4q152 23 317 23q82 0 105 -2h4q18 0 18 22q0 20 -22 25q-23 2 -101 2q-166 0 -303 -21l2 543q0 223 -2 287h4q31 2 142 2q104 0 186 6 q25 0 25 25q0 8 -6.5 15t-16.5 7h-2q-31 -2 -139 -2q-104 0 -189 -6h-4q-2 51 -2 231l4 359q0 115 -4 209v14q0 12 4 25q10 20 60 20h28q14 2 64 2q47 0 61 -2l246 -8q25 0 25 22q0 25 -25 25q-45 0 -137 6q-117 6 -172 6l-107 -4q-53 -4 -75.5 -21.5t-22.5 -64.5zM324 1524 q0 -8 6 -15.5t14 -7.5t10 2l121 62q8 6 8 14t-6 14t-14 6t-10 -2q-33 -10 -62 -25.5t-57 -33.5q-10 -4 -10 -14z" />
<glyph unicode="&#xea;" horiz-adv-x="702" d="M82 1331l6 -74q2 -27 2 -124v-62q0 -143 -2 -184l-2 -185v-61l2 -242q2 -53 2 -239q0 -213 -2 -275l-2 -276q0 -10 8 -16.5t19 -6.5h4q152 23 317 23q82 0 105 -2h4q18 0 18 22q0 20 -22 25q-23 2 -101 2q-166 0 -303 -21l2 543q0 223 -2 287h4q31 2 142 2q104 0 186 6 q25 0 25 25q0 8 -6.5 15t-16.5 7h-2q-31 -2 -139 -2q-104 0 -189 -6h-4q-2 51 -2 231l4 359q0 115 -4 209v14q0 12 4 25q10 20 60 20h28q14 2 64 2q47 0 61 -2l246 -8q25 0 25 22q0 25 -25 25q-45 0 -137 6q-117 6 -172 6l-107 -4q-53 -4 -75.5 -21.5t-22.5 -64.5zM242 1518 q0 -10 5 -16.5t13 -6.5t10 2q5 2 101 47l88 -47q4 -2 10 -2q8 0 14 6t6 15q0 10 -10 16l-80 43q-4 2 -13 6t-15 4l-11 -2q-6 -2 -36 -14l-74 -37q-8 -6 -8 -14z" />
<glyph unicode="&#xed;" horiz-adv-x="378" d="M133 -373q0 -10 6 -16t15 -6q23 0 22 22q10 358 10 772l-4 545l-4 316q1 22 -22 22q-8 0 -15.5 -6t-7.5 -16q0 -229 8 -560q2 -39 2 -174q0 -477 -10 -899zM137 1442q0 -8 6.5 -15.5t14.5 -7.5t10 2l121 62q8 6 8 14t-6 14.5t-15 6.5q-8 0 -10 -2q-33 -10 -61.5 -25.5 t-57.5 -34.5q-10 -4 -10 -14z" />
<glyph unicode="&#xf1;" horiz-adv-x="849" d="M82 1378l4 -135q31 -758 31 -1218q0 -209 -6 -418q0 -23 24 -23q25 0 25 23q6 205 6 411q0 430 -27 1072l-4 133l162 -453l342 -960l80 -222q6 -16 24 -16q8 0 15.5 5t7.5 17q2 29 2 130q0 162 -10 417l-2 64q-8 188 -8 354q0 135 -7 270l-4 203l-4 252v90q0 25 -24 25 q-25 0 -25 -25q0 -211 4 -407q2 -18 2 -49l4 -156l4 -273l7 -278l2 -59q12 -283 12 -422l-168 473l-344 960l-78 221q-6 16 -25 17q-23 0 -22 -21v-2zM301 1507q4 -16 18 -16q16 0 17 14v2v4q0 27 35 27q4 0 20 -4q12 -6 41 -35q31 -31 64 -31q35 2 53 29t14 59 q-2 12 -14 13q-8 0 -14.5 -5t-6.5 -14v-2v-4q0 -16 -11 -28.5t-25 -12.5l-17 4q-8 3 -18 17q-10 12 -19 18q-27 25 -57 31q-31 4 -56.5 -15.5t-23.5 -50.5z" />
<glyph unicode="&#xf3;" horiz-adv-x="800" d="M82 461q0 -332 27 -563q8 -102 53 -189q37 -76 102.5 -108.5t132.5 -32.5q74 0 143.5 28.5t114.5 98.5q37 57 47.5 143t10.5 219v86l4 226q2 35 2 157l-2 316l2 153q0 111 -23.5 194t-83.5 142q-63 72 -192 72q-53 0 -98 -10q-55 -12 -108.5 -58.5t-78.5 -107.5 q-25 -59 -33 -121t-10 -168l-2 -55q-8 -248 -8 -422zM133 670l6 215q2 16 2 43v45q0 113 19 184q18 63 61 116.5t98 72.5q31 10 68 10l57 -2q63 -4 97 -25q72 -45 100.5 -129t28.5 -209v-110l2 -342q0 -133 -2 -170q-8 -244 -8 -414v-27q-2 -102 -23 -164.5t-78 -101.5 q-66 -43 -170 -43q-96 0 -155.5 70.5t-77.5 185.5q-14 102 -19.5 286.5t-5.5 508.5zM373 1503q0 -8 6 -15t14 -7t10 2l121 61q8 6 8 15q0 8 -6 14t-14 6t-10 -2q-33 -10 -61.5 -25.5t-57.5 -33.5q-10 -4 -10 -15z" />
<glyph unicode="&#xf4;" horiz-adv-x="800" d="M82 461q0 -332 27 -563q8 -102 53 -189q37 -76 102.5 -108.5t132.5 -32.5q74 0 143.5 28.5t114.5 98.5q37 57 47.5 143t10.5 219v86l4 226q2 35 2 157l-2 316l2 153q0 111 -23.5 194t-83.5 142q-63 72 -192 72q-53 0 -98 -10q-55 -12 -108.5 -58.5t-78.5 -107.5 q-25 -59 -33 -121t-10 -168l-2 -55q-8 -248 -8 -422zM133 670l6 215q2 16 2 43v45q0 113 19 184q18 63 61 116.5t98 72.5q31 10 68 10l57 -2q63 -4 97 -25q72 -45 100.5 -129t28.5 -209v-110l2 -342q0 -133 -2 -170q-8 -244 -8 -414v-27q-2 -102 -23 -164.5t-78 -101.5 q-66 -43 -170 -43q-96 0 -155.5 70.5t-77.5 185.5q-14 102 -19.5 286.5t-5.5 508.5zM297 1505q0 -10 5 -16t13 -6t11 2q4 2 100 47q12 -6 88 -47q4 -2 10 -2q8 0 14.5 6t6.5 14q0 10 -10 17l-80 43q-4 2 -13.5 6t-15.5 4l-10 -2q-6 -2 -37 -15l-74 -36q-8 -6 -8 -15z" />
<glyph unicode="&#xf5;" horiz-adv-x="800" d="M82 461q0 -332 27 -563q8 -102 53 -189q37 -76 102.5 -108.5t132.5 -32.5q74 0 143.5 28.5t114.5 98.5q37 57 47.5 143t10.5 219v86l4 226q2 35 2 157l-2 316l2 153q0 111 -23.5 194t-83.5 142q-63 72 -192 72q-53 0 -98 -10q-55 -12 -108.5 -58.5t-78.5 -107.5 q-25 -59 -33 -121t-10 -168l-2 -55q-8 -248 -8 -422zM133 670l6 215q2 16 2 43v45q0 113 19 184q18 63 61 116.5t98 72.5q31 10 68 10l57 -2q63 -4 97 -25q72 -45 100.5 -129t28.5 -209v-110l2 -342q0 -133 -2 -170q-8 -244 -8 -414v-27q-2 -102 -23 -164.5t-78 -101.5 q-66 -43 -170 -43q-96 0 -155.5 70.5t-77.5 185.5q-14 102 -19.5 286.5t-5.5 508.5zM301 1507q4 -16 18 -16q16 0 17 14v2v4q0 27 35 27q4 0 20 -4q12 -6 41 -35q31 -31 64 -31q35 2 53 29t14 59q-2 12 -14 13q-8 0 -14.5 -5t-6.5 -14v-2v-4q0 -16 -11 -28.5t-25 -12.5 l-17 4q-8 3 -18 17q-10 12 -19 18q-27 25 -57 31q-31 4 -56.5 -15.5t-23.5 -50.5z" />
<glyph unicode="&#xf6;" horiz-adv-x="800" d="M82 461q0 -332 27 -563q8 -102 53 -189q37 -76 102.5 -108.5t132.5 -32.5q74 0 143.5 28.5t114.5 98.5q37 57 47.5 143t10.5 219v86l4 226q2 35 2 157l-2 316l2 153q0 111 -23.5 194t-83.5 142q-63 72 -192 72q-53 0 -98 -10q-55 -12 -108.5 -58.5t-78.5 -107.5 q-25 -59 -33 -121t-10 -168l-2 -55q-8 -248 -8 -422zM133 670l6 215q2 16 2 43v45q0 113 19 184q18 63 61 116.5t98 72.5q31 10 68 10l57 -2q63 -4 97 -25q72 -45 100.5 -129t28.5 -209v-110l2 -342q0 -133 -2 -170q-8 -244 -8 -414v-27q-2 -102 -23 -164.5t-78 -101.5 q-66 -43 -170 -43q-96 0 -155.5 70.5t-77.5 185.5q-14 102 -19.5 286.5t-5.5 508.5zM326 1522q0 -12 8 -21.5t22 -9.5q13 0 21 9t8 22q0 31 -29 30q-14 0 -22 -9t-8 -21zM436 1526q0 -14 8.5 -23.5t22.5 -9.5t21.5 9t7.5 24q0 12 -8.5 21t-20.5 9q-14 0 -22.5 -9t-8.5 -21z " />
<glyph unicode="&#xfa;" horiz-adv-x="798" d="M82 801q0 -373 14 -752q0 -35 2 -65q4 -111 29 -197q31 -96 100.5 -151.5t163.5 -55.5q129 0 211 68q59 51 79.5 126.5t20.5 202.5q0 170 9 402l2 72l4 284q0 219 -2 283l-2 282v89q0 12 -7.5 17t-15.5 5q-25 0 -24 -22l-2 -353l2 -352v-76q0 -166 -7 -336l-6 -247v-91 q0 -106 -22 -163q-25 -61 -77 -97t-122 -45l-45 -2q-31 0 -57 6q-98 23 -150 148q-18 49 -24 100t-13 156q-6 115 -10 356.5t-4 415.5q0 324 14 575v5q0 18 -22 18q-20 0 -25 -23q-14 -213 -14 -583zM354 1509q0 -8 6.5 -15t14.5 -7t10 2l121 61q8 6 8 15q0 8 -6 14t-14 6 t-11 -2q-33 -10 -61.5 -25.5t-56.5 -33.5q-10 -4 -11 -15z" />
<glyph unicode="&#xfc;" horiz-adv-x="798" d="M82 801q0 -373 14 -752q0 -35 2 -65q4 -111 29 -197q31 -96 100.5 -151.5t163.5 -55.5q129 0 211 68q59 51 79.5 126.5t20.5 202.5q0 170 9 402l2 72l4 284q0 219 -2 283l-2 282v89q0 12 -7.5 17t-15.5 5q-25 0 -24 -22l-2 -353l2 -352v-76q0 -166 -7 -336l-6 -247v-91 q0 -106 -22 -163q-25 -61 -77 -97t-122 -45l-45 -2q-31 0 -57 6q-98 23 -150 148q-18 49 -24 100t-13 156q-6 115 -10 356.5t-4 415.5q0 324 14 575v5q0 18 -22 18q-20 0 -25 -23q-14 -213 -14 -583zM326 1522q0 -12 8 -21.5t22 -9.5q13 0 21 9t8 22q0 31 -29 30 q-14 0 -22 -9t-8 -21zM436 1526q0 -14 8.5 -23.5t22.5 -9.5t21.5 9t7.5 24q0 12 -8.5 21t-20.5 9q-14 0 -22.5 -9t-8.5 -21z" />
<glyph unicode="&#x2000;" horiz-adv-x="828" />
<glyph unicode="&#x2001;" horiz-adv-x="1657" />
<glyph unicode="&#x2002;" horiz-adv-x="828" />
<glyph unicode="&#x2003;" horiz-adv-x="1657" />
<glyph unicode="&#x2004;" horiz-adv-x="552" />
<glyph unicode="&#x2005;" horiz-adv-x="414" />
<glyph unicode="&#x2006;" horiz-adv-x="276" />
<glyph unicode="&#x2007;" horiz-adv-x="276" />
<glyph unicode="&#x2008;" horiz-adv-x="207" />
<glyph unicode="&#x2009;" horiz-adv-x="331" />
<glyph unicode="&#x200a;" horiz-adv-x="92" />
<glyph unicode="&#x2010;" horiz-adv-x="866" d="M82 520q0 -25 24 -24h654q25 0 24 24q0 25 -24 25h-654q-24 0 -24 -25z" />
<glyph unicode="&#x2011;" horiz-adv-x="866" d="M82 520q0 -25 24 -24h654q25 0 24 24q0 25 -24 25h-654q-24 0 -24 -25z" />
<glyph unicode="&#x2012;" horiz-adv-x="866" d="M82 520q0 -25 24 -24h654q25 0 24 24q0 25 -24 25h-654q-24 0 -24 -25z" />
<glyph unicode="&#x2013;" horiz-adv-x="1186" d="M82 520q0 -25 35 -24h954q36 0 35 24q0 25 -35 25h-954q-35 0 -35 -25z" />
<glyph unicode="&#x2014;" horiz-adv-x="2210" d="M82 520q0 -25 70 -24h1908q73 0 70 24q0 25 -70 25h-1908q-70 0 -70 -25z" />
<glyph unicode="&#x202f;" horiz-adv-x="331" />
<glyph unicode="&#x205f;" horiz-adv-x="414" />
<glyph unicode="&#x20ac;" horiz-adv-x="872" d="M82 418q0 -25 20 -25h162l4 -233v-107q0 -143 25 -241q23 -100 91.5 -154.5t172.5 -54.5q70 0 132.5 23.5t92.5 64.5q6 6 6 14q0 10 -7 17.5t-15 7.5q-10 0 -16 -9q-29 -35 -81.5 -54t-113.5 -19q-84 0 -129 33q-66 45 -89.5 130t-23.5 226v104l-2 252h250q23 0 23 25 q0 8 -6.5 15t-16.5 7h-250q-2 37 -2 168h252q23 0 23 25q0 8 -6.5 15t-16.5 7h-254v56l-2 112q0 117 15.5 205t52.5 164q27 53 58.5 86t78.5 49q49 16 88 16q88 0 152 -57q6 -6 16 -6t17.5 7t7.5 16q0 8 -9 14q-39 35 -88 53.5t-104 18.5q-111 0 -187 -72 q-72 -66 -107.5 -193t-35.5 -297l-2 -86l2 -86h-158q-10 0 -15 -7t-5 -15q0 -25 20 -25h158l2 -168h-160q-10 0 -15 -7t-5 -15z" />
<glyph unicode="&#x25fc;" horiz-adv-x="1413" d="M0 0v1413h1413v-1413h-1413z" />
</font>
</defs>
</svg>
